<svg width="248" height="261" viewBox="0 0 248 261" fill="none" xmlns="http://www.w3.org/2000/svg">
<rect x="0.75" y="0.75" width="246.5" height="34.5" rx="17.25" stroke="#8BB0DB" stroke-width="1.5"/>
<rect x="0.75" y="75.75" width="246.5" height="34.5" rx="17.25" stroke="#8BB0DB" stroke-width="1.5"/>
<rect x="0.75" y="150.75" width="246.5" height="34.5" rx="17.25" stroke="#8BB0DB" stroke-width="1.5"/>
<rect x="0.75" y="225.75" width="246.5" height="34.5" rx="17.25" stroke="#8BB0DB" stroke-width="1.5"/>
<path d="M81.0724 23L77.8452 11.3636H79.6918L81.9588 20.375H82.0668L84.4247 11.3636H86.2543L88.6122 20.3807H88.7202L90.9815 11.3636H92.8338L89.6009 23H87.8338L85.3849 14.2841H85.294L82.8452 23H81.0724ZM94.2983 23V14.2727H95.9972V23H94.2983ZM95.1562 12.9261C94.8608 12.9261 94.607 12.8277 94.3949 12.6307C94.1866 12.4299 94.0824 12.1913 94.0824 11.9148C94.0824 11.6345 94.1866 11.3958 94.3949 11.1989C94.607 10.9981 94.8608 10.8977 95.1562 10.8977C95.4517 10.8977 95.7036 10.9981 95.9119 11.1989C96.1241 11.3958 96.2301 11.6345 96.2301 11.9148C96.2301 12.1913 96.1241 12.4299 95.9119 12.6307C95.7036 12.8277 95.4517 12.9261 95.1562 12.9261ZM98.2827 23V14.2727H99.9247V15.6591H100.016C100.175 15.1894 100.455 14.8201 100.857 14.5511C101.262 14.2784 101.72 14.142 102.232 14.142C102.338 14.142 102.463 14.1458 102.607 14.1534C102.754 14.161 102.87 14.1705 102.953 14.1818V15.8068C102.885 15.7879 102.764 15.767 102.589 15.7443C102.415 15.7178 102.241 15.7045 102.067 15.7045C101.665 15.7045 101.307 15.7898 100.993 15.9602C100.682 16.1269 100.436 16.3598 100.254 16.6591C100.072 16.9545 99.9815 17.2917 99.9815 17.6705V23H98.2827ZM107.872 23.1761C107.012 23.1761 106.272 22.9924 105.651 22.625C105.033 22.2538 104.556 21.733 104.219 21.0625C103.885 20.3883 103.719 19.5985 103.719 18.6932C103.719 17.7992 103.885 17.0114 104.219 16.3295C104.556 15.6477 105.026 15.1155 105.628 14.733C106.234 14.3504 106.942 14.1591 107.753 14.1591C108.245 14.1591 108.723 14.2405 109.185 14.4034C109.647 14.5663 110.062 14.822 110.429 15.1705C110.796 15.5189 111.086 15.9716 111.298 16.5284C111.51 17.0814 111.616 17.7538 111.616 18.5455V19.1477H104.679V17.875H109.952C109.952 17.428 109.861 17.0322 109.679 16.6875C109.497 16.339 109.241 16.0644 108.912 15.8636C108.586 15.6629 108.204 15.5625 107.764 15.5625C107.287 15.5625 106.87 15.6799 106.514 15.9148C106.162 16.1458 105.889 16.4489 105.696 16.8239C105.507 17.1951 105.412 17.5985 105.412 18.0341V19.0284C105.412 19.6117 105.514 20.108 105.719 20.517C105.927 20.9261 106.217 21.2386 106.588 21.4545C106.959 21.6667 107.393 21.7727 107.889 21.7727C108.211 21.7727 108.505 21.7273 108.77 21.6364C109.035 21.5417 109.264 21.4015 109.457 21.2159C109.651 21.0303 109.798 20.8011 109.901 20.5284L111.509 20.8182C111.38 21.2917 111.149 21.7064 110.815 22.0625C110.486 22.4148 110.071 22.6894 109.571 22.8864C109.075 23.0795 108.509 23.1761 107.872 23.1761ZM117.655 14.2727V15.6364H112.723V14.2727H117.655ZM114.075 23V13.2614C114.075 12.7159 114.195 12.2633 114.433 11.9034C114.672 11.5398 114.988 11.2689 115.382 11.0909C115.776 10.9091 116.204 10.8182 116.666 10.8182C117.007 10.8182 117.299 10.8466 117.541 10.9034C117.784 10.9564 117.964 11.0057 118.081 11.0511L117.683 12.4261C117.604 12.4034 117.501 12.3769 117.376 12.3466C117.251 12.3125 117.1 12.2955 116.922 12.2955C116.509 12.2955 116.214 12.3977 116.036 12.6023C115.861 12.8068 115.774 13.1023 115.774 13.4886V23H114.075ZM119.408 23V14.2727H121.05V15.6591H121.141C121.3 15.1894 121.58 14.8201 121.982 14.5511C122.387 14.2784 122.845 14.142 123.357 14.142C123.463 14.142 123.588 14.1458 123.732 14.1534C123.879 14.161 123.995 14.1705 124.078 14.1818V15.8068C124.01 15.7879 123.889 15.767 123.714 15.7443C123.54 15.7178 123.366 15.7045 123.192 15.7045C122.79 15.7045 122.432 15.7898 122.118 15.9602C121.807 16.1269 121.561 16.3598 121.379 16.6591C121.197 16.9545 121.107 17.2917 121.107 17.6705V23H119.408ZM128.01 23.1932C127.457 23.1932 126.957 23.0909 126.51 22.8864C126.063 22.678 125.709 22.3769 125.447 21.983C125.19 21.589 125.061 21.1061 125.061 20.5341C125.061 20.0417 125.156 19.6364 125.345 19.3182C125.535 19 125.79 18.7481 126.112 18.5625C126.434 18.3769 126.794 18.2367 127.192 18.142C127.589 18.0473 127.995 17.9754 128.408 17.9261C128.93 17.8655 129.355 17.8163 129.68 17.7784C130.006 17.7367 130.243 17.6705 130.391 17.5795C130.538 17.4886 130.612 17.3409 130.612 17.1364V17.0966C130.612 16.6004 130.472 16.2159 130.192 15.9432C129.915 15.6705 129.502 15.5341 128.953 15.5341C128.381 15.5341 127.93 15.661 127.601 15.9148C127.275 16.1648 127.05 16.4432 126.925 16.75L125.328 16.3864C125.518 15.8561 125.794 15.428 126.158 15.1023C126.525 14.7727 126.947 14.5341 127.425 14.3864C127.902 14.2348 128.404 14.1591 128.93 14.1591C129.279 14.1591 129.648 14.2008 130.038 14.2841C130.432 14.3636 130.8 14.5114 131.141 14.7273C131.485 14.9432 131.768 15.2519 131.987 15.6534C132.207 16.0511 132.317 16.5682 132.317 17.2045V23H130.658V21.8068H130.589C130.48 22.0265 130.315 22.2424 130.095 22.4545C129.875 22.6667 129.593 22.8428 129.249 22.983C128.904 23.1231 128.491 23.1932 128.01 23.1932ZM128.379 21.8295C128.849 21.8295 129.25 21.7367 129.584 21.5511C129.921 21.3655 130.177 21.1231 130.351 20.8239C130.529 20.5208 130.618 20.197 130.618 19.8523V18.7273C130.557 18.7879 130.44 18.8447 130.266 18.8977C130.095 18.947 129.9 18.9905 129.68 19.0284C129.461 19.0625 129.247 19.0947 129.038 19.125C128.83 19.1515 128.656 19.1742 128.516 19.1932C128.186 19.2348 127.885 19.3049 127.612 19.4034C127.343 19.5019 127.127 19.6439 126.964 19.8295C126.805 20.0114 126.726 20.2538 126.726 20.5568C126.726 20.9773 126.881 21.2955 127.192 21.5114C127.502 21.7235 127.898 21.8295 128.379 21.8295ZM134.58 23V14.2727H136.21V15.6932H136.318C136.5 15.2121 136.797 14.8371 137.21 14.5682C137.623 14.2955 138.117 14.1591 138.693 14.1591C139.277 14.1591 139.765 14.2955 140.159 14.5682C140.557 14.8409 140.85 15.2159 141.04 15.6932H141.131C141.339 15.2273 141.67 14.8561 142.125 14.5795C142.58 14.2992 143.121 14.1591 143.75 14.1591C144.542 14.1591 145.188 14.4072 145.688 14.9034C146.191 15.3996 146.443 16.1477 146.443 17.1477V23H144.744V17.3068C144.744 16.7159 144.583 16.2879 144.261 16.0227C143.939 15.7576 143.555 15.625 143.108 15.625C142.555 15.625 142.125 15.7955 141.818 16.1364C141.511 16.4735 141.358 16.9072 141.358 17.4375V23H139.665V17.1989C139.665 16.7254 139.517 16.3447 139.222 16.0568C138.926 15.7689 138.542 15.625 138.068 15.625C137.746 15.625 137.449 15.7102 137.176 15.8807C136.907 16.0473 136.689 16.2803 136.523 16.5795C136.36 16.8788 136.278 17.2254 136.278 17.6193V23H134.58ZM148.72 23V14.2727H150.419V23H148.72ZM149.578 12.9261C149.283 12.9261 149.029 12.8277 148.817 12.6307C148.608 12.4299 148.504 12.1913 148.504 11.9148C148.504 11.6345 148.608 11.3958 148.817 11.1989C149.029 10.9981 149.283 10.8977 149.578 10.8977C149.874 10.8977 150.125 10.9981 150.334 11.1989C150.546 11.3958 150.652 11.6345 150.652 11.9148C150.652 12.1913 150.546 12.4299 150.334 12.6307C150.125 12.8277 149.874 12.9261 149.578 12.9261ZM154.403 17.8182V23H152.705V14.2727H154.335V15.6932H154.443C154.644 15.2311 154.958 14.8598 155.386 14.5795C155.818 14.2992 156.362 14.1591 157.017 14.1591C157.612 14.1591 158.133 14.2841 158.58 14.5341C159.027 14.7803 159.373 15.1477 159.619 15.6364C159.866 16.125 159.989 16.7292 159.989 17.4489V23H158.29V17.6534C158.29 17.0208 158.125 16.5265 157.795 16.1705C157.466 15.8106 157.013 15.6307 156.438 15.6307C156.044 15.6307 155.693 15.7159 155.386 15.8864C155.083 16.0568 154.843 16.3068 154.665 16.6364C154.491 16.9621 154.403 17.3561 154.403 17.8182ZM165.926 26.4545C165.233 26.4545 164.636 26.3636 164.136 26.1818C163.64 26 163.235 25.7595 162.92 25.4602C162.606 25.161 162.371 24.8333 162.216 24.4773L163.676 23.875C163.778 24.0417 163.915 24.2178 164.085 24.4034C164.259 24.5928 164.494 24.7538 164.79 24.8864C165.089 25.0189 165.473 25.0852 165.943 25.0852C166.587 25.0852 167.119 24.928 167.54 24.6136C167.96 24.303 168.17 23.8068 168.17 23.125V21.4091H168.062C167.96 21.5947 167.813 21.8011 167.619 22.0284C167.43 22.2557 167.169 22.4527 166.835 22.6193C166.502 22.786 166.068 22.8693 165.534 22.8693C164.845 22.8693 164.223 22.7083 163.67 22.3864C163.121 22.0606 162.686 21.5814 162.364 20.9489C162.045 20.3125 161.886 19.5303 161.886 18.6023C161.886 17.6742 162.044 16.8788 162.358 16.2159C162.676 15.553 163.112 15.0455 163.665 14.6932C164.218 14.3371 164.845 14.1591 165.545 14.1591C166.087 14.1591 166.525 14.25 166.858 14.4318C167.191 14.6098 167.451 14.8182 167.636 15.0568C167.826 15.2955 167.972 15.5057 168.074 15.6875H168.199V14.2727H169.864V23.1932C169.864 23.9432 169.689 24.5587 169.341 25.0398C168.992 25.5208 168.521 25.8769 167.926 26.108C167.335 26.339 166.669 26.4545 165.926 26.4545ZM165.909 21.4602C166.398 21.4602 166.811 21.3466 167.148 21.1193C167.489 20.8883 167.746 20.5587 167.92 20.1307C168.098 19.6989 168.188 19.1818 168.188 18.5795C168.188 17.9924 168.1 17.4754 167.926 17.0284C167.752 16.5814 167.496 16.233 167.159 15.983C166.822 15.7292 166.405 15.6023 165.909 15.6023C165.398 15.6023 164.972 15.7348 164.631 16C164.29 16.2614 164.032 16.6174 163.858 17.0682C163.688 17.5189 163.602 18.0227 163.602 18.5795C163.602 19.1515 163.689 19.6534 163.864 20.0852C164.038 20.517 164.295 20.8542 164.636 21.0966C164.981 21.339 165.405 21.4602 165.909 21.4602Z" fill="#7C7C7C"/>
<path d="M78.7628 98V86.3636H82.9105C83.8158 86.3636 84.5658 86.5284 85.1605 86.858C85.7552 87.1875 86.2003 87.6383 86.4957 88.2102C86.7912 88.7784 86.9389 89.4186 86.9389 90.1307C86.9389 90.8466 86.7893 91.4905 86.4901 92.0625C86.1946 92.6307 85.7476 93.0814 85.1491 93.4148C84.5545 93.7443 83.8063 93.9091 82.9048 93.9091H80.0526V92.4205H82.7457C83.3177 92.4205 83.7817 92.322 84.1378 92.125C84.4938 91.9242 84.7552 91.6515 84.9219 91.3068C85.0885 90.9621 85.1719 90.5701 85.1719 90.1307C85.1719 89.6913 85.0885 89.3011 84.9219 88.9602C84.7552 88.6193 84.492 88.3523 84.1321 88.1591C83.776 87.9659 83.3063 87.8693 82.723 87.8693H80.5185V98H78.7628ZM88.8608 98V89.2727H90.5028V90.6591H90.5938C90.7528 90.1894 91.0331 89.8201 91.4347 89.5511C91.84 89.2784 92.2983 89.142 92.8097 89.142C92.9157 89.142 93.0407 89.1458 93.1847 89.1534C93.3324 89.161 93.4479 89.1705 93.5312 89.1818V90.8068C93.4631 90.7879 93.3419 90.767 93.1676 90.7443C92.9934 90.7178 92.8191 90.7045 92.6449 90.7045C92.2434 90.7045 91.8854 90.7898 91.571 90.9602C91.2604 91.1269 91.0142 91.3598 90.8324 91.6591C90.6506 91.9545 90.5597 92.2917 90.5597 92.6705V98H88.8608ZM98.3651 98.1761C97.5469 98.1761 96.8329 97.9886 96.223 97.6136C95.6132 97.2386 95.1397 96.714 94.8026 96.0398C94.4654 95.3655 94.2969 94.5777 94.2969 93.6761C94.2969 92.7708 94.4654 91.9792 94.8026 91.3011C95.1397 90.6231 95.6132 90.0966 96.223 89.7216C96.8329 89.3466 97.5469 89.1591 98.3651 89.1591C99.1832 89.1591 99.8973 89.3466 100.507 89.7216C101.117 90.0966 101.59 90.6231 101.928 91.3011C102.265 91.9792 102.433 92.7708 102.433 93.6761C102.433 94.5777 102.265 95.3655 101.928 96.0398C101.59 96.714 101.117 97.2386 100.507 97.6136C99.8973 97.9886 99.1832 98.1761 98.3651 98.1761ZM98.3707 96.75C98.901 96.75 99.3404 96.6098 99.6889 96.3295C100.037 96.0492 100.295 95.6761 100.462 95.2102C100.632 94.7443 100.717 94.2311 100.717 93.6705C100.717 93.1136 100.632 92.6023 100.462 92.1364C100.295 91.6667 100.037 91.2898 99.6889 91.0057C99.3404 90.7216 98.901 90.5795 98.3707 90.5795C97.8366 90.5795 97.3935 90.7216 97.0412 91.0057C96.6927 91.2898 96.4332 91.6667 96.2628 92.1364C96.0961 92.6023 96.0128 93.1136 96.0128 93.6705C96.0128 94.2311 96.0961 94.7443 96.2628 95.2102C96.4332 95.6761 96.6927 96.0492 97.0412 96.3295C97.3935 96.6098 97.8366 96.75 98.3707 96.75ZM108.403 89.2727V90.6364H103.636V89.2727H108.403ZM104.915 87.1818H106.614V95.4375C106.614 95.767 106.663 96.0152 106.761 96.1818C106.86 96.3447 106.987 96.4564 107.142 96.517C107.301 96.5739 107.473 96.6023 107.659 96.6023C107.795 96.6023 107.915 96.5928 108.017 96.5739C108.119 96.5549 108.199 96.5398 108.256 96.5284L108.562 97.9318C108.464 97.9697 108.324 98.0076 108.142 98.0455C107.96 98.0871 107.733 98.1098 107.46 98.1136C107.013 98.1212 106.597 98.0417 106.21 97.875C105.824 97.7083 105.511 97.4508 105.273 97.1023C105.034 96.7538 104.915 96.3163 104.915 95.7898V87.1818ZM113.865 98.1761C113.047 98.1761 112.333 97.9886 111.723 97.6136C111.113 97.2386 110.64 96.714 110.303 96.0398C109.965 95.3655 109.797 94.5777 109.797 93.6761C109.797 92.7708 109.965 91.9792 110.303 91.3011C110.64 90.6231 111.113 90.0966 111.723 89.7216C112.333 89.3466 113.047 89.1591 113.865 89.1591C114.683 89.1591 115.397 89.3466 116.007 89.7216C116.617 90.0966 117.09 90.6231 117.428 91.3011C117.765 91.9792 117.933 92.7708 117.933 93.6761C117.933 94.5777 117.765 95.3655 117.428 96.0398C117.09 96.714 116.617 97.2386 116.007 97.6136C115.397 97.9886 114.683 98.1761 113.865 98.1761ZM113.871 96.75C114.401 96.75 114.84 96.6098 115.189 96.3295C115.537 96.0492 115.795 95.6761 115.962 95.2102C116.132 94.7443 116.217 94.2311 116.217 93.6705C116.217 93.1136 116.132 92.6023 115.962 92.1364C115.795 91.6667 115.537 91.2898 115.189 91.0057C114.84 90.7216 114.401 90.5795 113.871 90.5795C113.337 90.5795 112.893 90.7216 112.541 91.0057C112.193 91.2898 111.933 91.6667 111.763 92.1364C111.596 92.6023 111.513 93.1136 111.513 93.6705C111.513 94.2311 111.596 94.7443 111.763 95.2102C111.933 95.6761 112.193 96.0492 112.541 96.3295C112.893 96.6098 113.337 96.75 113.871 96.75ZM123.903 89.2727V90.6364H119.136V89.2727H123.903ZM120.415 87.1818H122.114V95.4375C122.114 95.767 122.163 96.0152 122.261 96.1818C122.36 96.3447 122.487 96.4564 122.642 96.517C122.801 96.5739 122.973 96.6023 123.159 96.6023C123.295 96.6023 123.415 96.5928 123.517 96.5739C123.619 96.5549 123.699 96.5398 123.756 96.5284L124.062 97.9318C123.964 97.9697 123.824 98.0076 123.642 98.0455C123.46 98.0871 123.233 98.1098 122.96 98.1136C122.513 98.1212 122.097 98.0417 121.71 97.875C121.324 97.7083 121.011 97.4508 120.773 97.1023C120.534 96.7538 120.415 96.3163 120.415 95.7898V87.1818ZM126.857 101.273C126.603 101.273 126.372 101.252 126.163 101.21C125.955 101.172 125.8 101.131 125.697 101.085L126.107 99.6932C126.417 99.7765 126.694 99.8125 126.936 99.8011C127.179 99.7898 127.393 99.6989 127.578 99.5284C127.768 99.358 127.934 99.0795 128.078 98.6932L128.288 98.1136L125.095 89.2727H126.913L129.124 96.0455H129.214L131.425 89.2727H133.249L129.652 99.1648C129.485 99.6193 129.273 100.004 129.016 100.318C128.758 100.636 128.451 100.875 128.095 101.034C127.739 101.193 127.326 101.273 126.857 101.273ZM134.845 101.273V89.2727H136.504V90.6875H136.646C136.745 90.5057 136.887 90.2955 137.072 90.0568C137.258 89.8182 137.516 89.6098 137.845 89.4318C138.175 89.25 138.61 89.1591 139.152 89.1591C139.857 89.1591 140.485 89.3371 141.038 89.6932C141.591 90.0492 142.025 90.5625 142.339 91.233C142.658 91.9034 142.817 92.7102 142.817 93.6534C142.817 94.5966 142.66 95.4053 142.345 96.0795C142.031 96.75 141.599 97.267 141.05 97.6307C140.5 97.9905 139.874 98.1705 139.169 98.1705C138.639 98.1705 138.205 98.0814 137.868 97.9034C137.535 97.7254 137.273 97.517 137.084 97.2784C136.894 97.0398 136.749 96.8277 136.646 96.642H136.544V101.273H134.845ZM136.51 93.6364C136.51 94.25 136.599 94.7879 136.777 95.25C136.955 95.7121 137.213 96.0739 137.55 96.3352C137.887 96.5928 138.3 96.7216 138.788 96.7216C139.296 96.7216 139.72 96.5871 140.061 96.3182C140.402 96.0455 140.66 95.6761 140.834 95.2102C141.012 94.7443 141.101 94.2197 141.101 93.6364C141.101 93.0606 141.014 92.5436 140.839 92.0852C140.669 91.6269 140.411 91.2652 140.067 91C139.726 90.7348 139.3 90.6023 138.788 90.6023C138.296 90.6023 137.879 90.7292 137.538 90.983C137.201 91.2367 136.946 91.5909 136.771 92.0455C136.597 92.5 136.51 93.0303 136.51 93.6364ZM144.72 98V89.2727H146.419V98H144.72ZM145.578 87.9261C145.283 87.9261 145.029 87.8277 144.817 87.6307C144.608 87.4299 144.504 87.1913 144.504 86.9148C144.504 86.6345 144.608 86.3958 144.817 86.1989C145.029 85.9981 145.283 85.8977 145.578 85.8977C145.874 85.8977 146.125 85.9981 146.334 86.1989C146.546 86.3958 146.652 86.6345 146.652 86.9148C146.652 87.1913 146.546 87.4299 146.334 87.6307C146.125 87.8277 145.874 87.9261 145.578 87.9261ZM150.403 92.8182V98H148.705V89.2727H150.335V90.6932H150.443C150.644 90.2311 150.958 89.8598 151.386 89.5795C151.818 89.2992 152.362 89.1591 153.017 89.1591C153.612 89.1591 154.133 89.2841 154.58 89.5341C155.027 89.7803 155.373 90.1477 155.619 90.6364C155.866 91.125 155.989 91.7292 155.989 92.4489V98H154.29V92.6534C154.29 92.0208 154.125 91.5265 153.795 91.1705C153.466 90.8106 153.013 90.6307 152.438 90.6307C152.044 90.6307 151.693 90.7159 151.386 90.8864C151.083 91.0568 150.843 91.3068 150.665 91.6364C150.491 91.9621 150.403 92.3561 150.403 92.8182ZM161.926 101.455C161.233 101.455 160.636 101.364 160.136 101.182C159.64 101 159.235 100.759 158.92 100.46C158.606 100.161 158.371 99.8333 158.216 99.4773L159.676 98.875C159.778 99.0417 159.915 99.2178 160.085 99.4034C160.259 99.5928 160.494 99.7538 160.79 99.8864C161.089 100.019 161.473 100.085 161.943 100.085C162.587 100.085 163.119 99.928 163.54 99.6136C163.96 99.303 164.17 98.8068 164.17 98.125V96.4091H164.062C163.96 96.5947 163.813 96.8011 163.619 97.0284C163.43 97.2557 163.169 97.4527 162.835 97.6193C162.502 97.786 162.068 97.8693 161.534 97.8693C160.845 97.8693 160.223 97.7083 159.67 97.3864C159.121 97.0606 158.686 96.5814 158.364 95.9489C158.045 95.3125 157.886 94.5303 157.886 93.6023C157.886 92.6742 158.044 91.8788 158.358 91.2159C158.676 90.553 159.112 90.0455 159.665 89.6932C160.218 89.3371 160.845 89.1591 161.545 89.1591C162.087 89.1591 162.525 89.25 162.858 89.4318C163.191 89.6098 163.451 89.8182 163.636 90.0568C163.826 90.2955 163.972 90.5057 164.074 90.6875H164.199V89.2727H165.864V98.1932C165.864 98.9432 165.689 99.5587 165.341 100.04C164.992 100.521 164.521 100.877 163.926 101.108C163.335 101.339 162.669 101.455 161.926 101.455ZM161.909 96.4602C162.398 96.4602 162.811 96.3466 163.148 96.1193C163.489 95.8883 163.746 95.5587 163.92 95.1307C164.098 94.6989 164.188 94.1818 164.188 93.5795C164.188 92.9924 164.1 92.4754 163.926 92.0284C163.752 91.5814 163.496 91.233 163.159 90.983C162.822 90.7292 162.405 90.6023 161.909 90.6023C161.398 90.6023 160.972 90.7348 160.631 91C160.29 91.2614 160.032 91.6174 159.858 92.0682C159.688 92.5189 159.602 93.0227 159.602 93.5795C159.602 94.1515 159.689 94.6534 159.864 95.0852C160.038 95.517 160.295 95.8542 160.636 96.0966C160.981 96.339 161.405 96.4602 161.909 96.4602Z" fill="#7C7C7C"/>
<path d="M17.6122 161.364V173H15.8565V161.364H17.6122ZM21.7315 167.818V173H20.0327V164.273H21.6634V165.693H21.7713C21.9721 165.231 22.2865 164.86 22.7145 164.58C23.1463 164.299 23.6899 164.159 24.3452 164.159C24.9399 164.159 25.4607 164.284 25.9077 164.534C26.3546 164.78 26.7012 165.148 26.9474 165.636C27.1937 166.125 27.3168 166.729 27.3168 167.449V173H25.6179V167.653C25.6179 167.021 25.4531 166.527 25.1236 166.17C24.794 165.811 24.3414 165.631 23.7656 165.631C23.3717 165.631 23.0213 165.716 22.7145 165.886C22.4115 166.057 22.1709 166.307 21.9929 166.636C21.8187 166.962 21.7315 167.356 21.7315 167.818ZM33.7486 164.273V165.636H28.8168V164.273H33.7486ZM30.169 173V163.261C30.169 162.716 30.2884 162.263 30.527 161.903C30.7656 161.54 31.0819 161.269 31.4759 161.091C31.8698 160.909 32.2978 160.818 32.7599 160.818C33.1009 160.818 33.3925 160.847 33.6349 160.903C33.8774 160.956 34.0573 161.006 34.1747 161.051L33.777 162.426C33.6974 162.403 33.5952 162.377 33.4702 162.347C33.3452 162.312 33.1937 162.295 33.0156 162.295C32.6027 162.295 32.3073 162.398 32.1293 162.602C31.955 162.807 31.8679 163.102 31.8679 163.489V173H30.169ZM38.8338 173.176C38.0156 173.176 37.3016 172.989 36.6918 172.614C36.0819 172.239 35.6084 171.714 35.2713 171.04C34.9342 170.366 34.7656 169.578 34.7656 168.676C34.7656 167.771 34.9342 166.979 35.2713 166.301C35.6084 165.623 36.0819 165.097 36.6918 164.722C37.3016 164.347 38.0156 164.159 38.8338 164.159C39.652 164.159 40.366 164.347 40.9759 164.722C41.5857 165.097 42.0592 165.623 42.3963 166.301C42.7334 166.979 42.902 167.771 42.902 168.676C42.902 169.578 42.7334 170.366 42.3963 171.04C42.0592 171.714 41.5857 172.239 40.9759 172.614C40.366 172.989 39.652 173.176 38.8338 173.176ZM38.8395 171.75C39.3698 171.75 39.8092 171.61 40.1577 171.33C40.5062 171.049 40.7637 170.676 40.9304 170.21C41.1009 169.744 41.1861 169.231 41.1861 168.67C41.1861 168.114 41.1009 167.602 40.9304 167.136C40.7637 166.667 40.5062 166.29 40.1577 166.006C39.8092 165.722 39.3698 165.58 38.8395 165.58C38.3054 165.58 37.8622 165.722 37.5099 166.006C37.1615 166.29 36.902 166.667 36.7315 167.136C36.5649 167.602 36.4815 168.114 36.4815 168.67C36.4815 169.231 36.5649 169.744 36.7315 170.21C36.902 170.676 37.1615 171.049 37.5099 171.33C37.8622 171.61 38.3054 171.75 38.8395 171.75ZM44.7983 173V164.273H46.4403V165.659H46.5312C46.6903 165.189 46.9706 164.82 47.3722 164.551C47.7775 164.278 48.2358 164.142 48.7472 164.142C48.8532 164.142 48.9782 164.146 49.1222 164.153C49.2699 164.161 49.3854 164.17 49.4688 164.182V165.807C49.4006 165.788 49.2794 165.767 49.1051 165.744C48.9309 165.718 48.7566 165.705 48.5824 165.705C48.1809 165.705 47.8229 165.79 47.5085 165.96C47.1979 166.127 46.9517 166.36 46.7699 166.659C46.5881 166.955 46.4972 167.292 46.4972 167.67V173H44.7983ZM50.9389 173V164.273H52.5696V165.693H52.6776C52.8594 165.212 53.1567 164.837 53.5696 164.568C53.9825 164.295 54.4768 164.159 55.0526 164.159C55.6359 164.159 56.1245 164.295 56.5185 164.568C56.9162 164.841 57.2098 165.216 57.3991 165.693H57.4901C57.6984 165.227 58.0298 164.856 58.4844 164.58C58.9389 164.299 59.4806 164.159 60.1094 164.159C60.901 164.159 61.5469 164.407 62.0469 164.903C62.5507 165.4 62.8026 166.148 62.8026 167.148V173H61.1037V167.307C61.1037 166.716 60.9427 166.288 60.6207 166.023C60.2988 165.758 59.9143 165.625 59.4673 165.625C58.9143 165.625 58.4844 165.795 58.1776 166.136C57.8707 166.473 57.7173 166.907 57.7173 167.438V173H56.0241V167.199C56.0241 166.725 55.8764 166.345 55.581 166.057C55.2855 165.769 54.901 165.625 54.4276 165.625C54.1056 165.625 53.8082 165.71 53.5355 165.881C53.2666 166.047 53.0488 166.28 52.8821 166.58C52.7192 166.879 52.6378 167.225 52.6378 167.619V173H50.9389ZM67.6193 173.193C67.0663 173.193 66.5663 173.091 66.1193 172.886C65.6723 172.678 65.3182 172.377 65.0568 171.983C64.7992 171.589 64.6705 171.106 64.6705 170.534C64.6705 170.042 64.7652 169.636 64.9545 169.318C65.1439 169 65.3996 168.748 65.7216 168.562C66.0436 168.377 66.4034 168.237 66.8011 168.142C67.1989 168.047 67.6042 167.975 68.017 167.926C68.5398 167.866 68.964 167.816 69.2898 167.778C69.6155 167.737 69.8523 167.67 70 167.58C70.1477 167.489 70.2216 167.341 70.2216 167.136V167.097C70.2216 166.6 70.0814 166.216 69.8011 165.943C69.5246 165.67 69.1117 165.534 68.5625 165.534C67.9905 165.534 67.5398 165.661 67.2102 165.915C66.8845 166.165 66.6591 166.443 66.5341 166.75L64.9375 166.386C65.1269 165.856 65.4034 165.428 65.767 165.102C66.1345 164.773 66.5568 164.534 67.0341 164.386C67.5114 164.235 68.0133 164.159 68.5398 164.159C68.8883 164.159 69.2576 164.201 69.6477 164.284C70.0417 164.364 70.4091 164.511 70.75 164.727C71.0947 164.943 71.3769 165.252 71.5966 165.653C71.8163 166.051 71.9261 166.568 71.9261 167.205V173H70.267V171.807H70.1989C70.089 172.027 69.9242 172.242 69.7045 172.455C69.4848 172.667 69.2027 172.843 68.858 172.983C68.5133 173.123 68.1004 173.193 67.6193 173.193ZM67.9886 171.83C68.4583 171.83 68.8598 171.737 69.1932 171.551C69.5303 171.366 69.786 171.123 69.9602 170.824C70.1383 170.521 70.2273 170.197 70.2273 169.852V168.727C70.1667 168.788 70.0492 168.845 69.875 168.898C69.7045 168.947 69.5095 168.991 69.2898 169.028C69.0701 169.062 68.8561 169.095 68.6477 169.125C68.4394 169.152 68.2652 169.174 68.125 169.193C67.7955 169.235 67.4943 169.305 67.2216 169.403C66.9527 169.502 66.7367 169.644 66.5739 169.83C66.4148 170.011 66.3352 170.254 66.3352 170.557C66.3352 170.977 66.4905 171.295 66.8011 171.511C67.1117 171.723 67.5076 171.83 67.9886 171.83ZM78.2628 164.273V165.636H73.4957V164.273H78.2628ZM74.7741 162.182H76.473V170.438C76.473 170.767 76.5223 171.015 76.6207 171.182C76.7192 171.345 76.8461 171.456 77.0014 171.517C77.1605 171.574 77.3329 171.602 77.5185 171.602C77.6548 171.602 77.7741 171.593 77.8764 171.574C77.9787 171.555 78.0582 171.54 78.1151 171.528L78.4219 172.932C78.3234 172.97 78.1832 173.008 78.0014 173.045C77.8196 173.087 77.5923 173.11 77.3196 173.114C76.8726 173.121 76.456 173.042 76.0696 172.875C75.6832 172.708 75.3707 172.451 75.1321 172.102C74.8935 171.754 74.7741 171.316 74.7741 170.79V162.182ZM80.142 173V164.273H81.8409V173H80.142ZM81 162.926C80.7045 162.926 80.4508 162.828 80.2386 162.631C80.0303 162.43 79.9261 162.191 79.9261 161.915C79.9261 161.634 80.0303 161.396 80.2386 161.199C80.4508 160.998 80.7045 160.898 81 160.898C81.2955 160.898 81.5473 160.998 81.7557 161.199C81.9678 161.396 82.0739 161.634 82.0739 161.915C82.0739 162.191 81.9678 162.43 81.7557 162.631C81.5473 162.828 81.2955 162.926 81 162.926ZM87.8026 173.176C86.9844 173.176 86.2704 172.989 85.6605 172.614C85.0507 172.239 84.5772 171.714 84.2401 171.04C83.9029 170.366 83.7344 169.578 83.7344 168.676C83.7344 167.771 83.9029 166.979 84.2401 166.301C84.5772 165.623 85.0507 165.097 85.6605 164.722C86.2704 164.347 86.9844 164.159 87.8026 164.159C88.6207 164.159 89.3348 164.347 89.9446 164.722C90.5545 165.097 91.0279 165.623 91.3651 166.301C91.7022 166.979 91.8707 167.771 91.8707 168.676C91.8707 169.578 91.7022 170.366 91.3651 171.04C91.0279 171.714 90.5545 172.239 89.9446 172.614C89.3348 172.989 88.6207 173.176 87.8026 173.176ZM87.8082 171.75C88.3385 171.75 88.7779 171.61 89.1264 171.33C89.4749 171.049 89.7325 170.676 89.8991 170.21C90.0696 169.744 90.1548 169.231 90.1548 168.67C90.1548 168.114 90.0696 167.602 89.8991 167.136C89.7325 166.667 89.4749 166.29 89.1264 166.006C88.7779 165.722 88.3385 165.58 87.8082 165.58C87.2741 165.58 86.831 165.722 86.4787 166.006C86.1302 166.29 85.8707 166.667 85.7003 167.136C85.5336 167.602 85.4503 168.114 85.4503 168.67C85.4503 169.231 85.5336 169.744 85.7003 170.21C85.8707 170.676 86.1302 171.049 86.4787 171.33C86.831 171.61 87.2741 171.75 87.8082 171.75ZM95.4659 167.818V173H93.767V164.273H95.3977V165.693H95.5057C95.7064 165.231 96.0208 164.86 96.4489 164.58C96.8807 164.299 97.4242 164.159 98.0795 164.159C98.6742 164.159 99.1951 164.284 99.642 164.534C100.089 164.78 100.436 165.148 100.682 165.636C100.928 166.125 101.051 166.729 101.051 167.449V173H99.3523V167.653C99.3523 167.021 99.1875 166.527 98.858 166.17C98.5284 165.811 98.0758 165.631 97.5 165.631C97.1061 165.631 96.7557 165.716 96.4489 165.886C96.1458 166.057 95.9053 166.307 95.7273 166.636C95.553 166.962 95.4659 167.356 95.4659 167.818ZM108.683 173H106.82L111.007 161.364H113.036L117.223 173H115.359L112.07 163.477H111.979L108.683 173ZM108.996 168.443H115.041V169.92H108.996V168.443ZM118.767 173V164.273H120.409V165.659H120.5C120.659 165.189 120.939 164.82 121.341 164.551C121.746 164.278 122.205 164.142 122.716 164.142C122.822 164.142 122.947 164.146 123.091 164.153C123.239 164.161 123.354 164.17 123.438 164.182V165.807C123.369 165.788 123.248 165.767 123.074 165.744C122.9 165.718 122.725 165.705 122.551 165.705C122.15 165.705 121.792 165.79 121.477 165.96C121.167 166.127 120.92 166.36 120.739 166.659C120.557 166.955 120.466 167.292 120.466 167.67V173H118.767ZM128.271 173.176C127.427 173.176 126.699 172.985 126.089 172.602C125.483 172.216 125.018 171.684 124.692 171.006C124.366 170.328 124.203 169.551 124.203 168.676C124.203 167.79 124.37 167.008 124.703 166.33C125.036 165.648 125.506 165.116 126.112 164.733C126.718 164.35 127.432 164.159 128.254 164.159C128.917 164.159 129.508 164.282 130.027 164.528C130.546 164.771 130.964 165.112 131.283 165.551C131.605 165.991 131.796 166.504 131.857 167.091H130.203C130.112 166.682 129.904 166.33 129.578 166.034C129.256 165.739 128.824 165.591 128.283 165.591C127.809 165.591 127.394 165.716 127.038 165.966C126.686 166.212 126.411 166.564 126.214 167.023C126.018 167.477 125.919 168.015 125.919 168.636C125.919 169.273 126.016 169.822 126.209 170.284C126.402 170.746 126.675 171.104 127.027 171.358C127.383 171.612 127.802 171.739 128.283 171.739C128.605 171.739 128.896 171.68 129.158 171.562C129.423 171.441 129.644 171.269 129.822 171.045C130.004 170.822 130.131 170.553 130.203 170.239H131.857C131.796 170.803 131.612 171.307 131.305 171.75C130.999 172.193 130.588 172.542 130.072 172.795C129.561 173.049 128.961 173.176 128.271 173.176ZM135.372 167.818V173H133.673V161.364H135.349V165.693H135.457C135.662 165.223 135.974 164.85 136.395 164.574C136.815 164.297 137.365 164.159 138.043 164.159C138.641 164.159 139.164 164.282 139.611 164.528C140.062 164.775 140.41 165.142 140.656 165.631C140.906 166.116 141.031 166.722 141.031 167.449V173H139.332V167.653C139.332 167.013 139.168 166.517 138.838 166.165C138.509 165.809 138.05 165.631 137.463 165.631C137.062 165.631 136.702 165.716 136.384 165.886C136.069 166.057 135.821 166.307 135.639 166.636C135.461 166.962 135.372 167.356 135.372 167.818ZM143.298 173V164.273H144.997V173H143.298ZM144.156 162.926C143.861 162.926 143.607 162.828 143.395 162.631C143.187 162.43 143.082 162.191 143.082 161.915C143.082 161.634 143.187 161.396 143.395 161.199C143.607 160.998 143.861 160.898 144.156 160.898C144.452 160.898 144.704 160.998 144.912 161.199C145.124 161.396 145.23 161.634 145.23 161.915C145.23 162.191 145.124 162.43 144.912 162.631C144.704 162.828 144.452 162.926 144.156 162.926ZM151.357 164.273V165.636H146.589V164.273H151.357ZM147.868 162.182H149.567V170.438C149.567 170.767 149.616 171.015 149.714 171.182C149.813 171.345 149.94 171.456 150.095 171.517C150.254 171.574 150.427 171.602 150.612 171.602C150.749 171.602 150.868 171.593 150.97 171.574C151.072 171.555 151.152 171.54 151.209 171.528L151.516 172.932C151.417 172.97 151.277 173.008 151.095 173.045C150.913 173.087 150.686 173.11 150.413 173.114C149.966 173.121 149.55 173.042 149.163 172.875C148.777 172.708 148.464 172.451 148.226 172.102C147.987 171.754 147.868 171.316 147.868 170.79V162.182ZM156.903 173.176C156.044 173.176 155.303 172.992 154.682 172.625C154.064 172.254 153.587 171.733 153.25 171.062C152.917 170.388 152.75 169.598 152.75 168.693C152.75 167.799 152.917 167.011 153.25 166.33C153.587 165.648 154.057 165.116 154.659 164.733C155.265 164.35 155.973 164.159 156.784 164.159C157.277 164.159 157.754 164.241 158.216 164.403C158.678 164.566 159.093 164.822 159.46 165.17C159.828 165.519 160.117 165.972 160.33 166.528C160.542 167.081 160.648 167.754 160.648 168.545V169.148H153.71V167.875H158.983C158.983 167.428 158.892 167.032 158.71 166.688C158.528 166.339 158.273 166.064 157.943 165.864C157.617 165.663 157.235 165.562 156.795 165.562C156.318 165.562 155.902 165.68 155.545 165.915C155.193 166.146 154.92 166.449 154.727 166.824C154.538 167.195 154.443 167.598 154.443 168.034V169.028C154.443 169.612 154.545 170.108 154.75 170.517C154.958 170.926 155.248 171.239 155.619 171.455C155.991 171.667 156.424 171.773 156.92 171.773C157.242 171.773 157.536 171.727 157.801 171.636C158.066 171.542 158.295 171.402 158.489 171.216C158.682 171.03 158.83 170.801 158.932 170.528L160.54 170.818C160.411 171.292 160.18 171.706 159.847 172.062C159.517 172.415 159.102 172.689 158.602 172.886C158.106 173.08 157.54 173.176 156.903 173.176ZM166.209 173.176C165.364 173.176 164.637 172.985 164.027 172.602C163.421 172.216 162.955 171.684 162.629 171.006C162.304 170.328 162.141 169.551 162.141 168.676C162.141 167.79 162.307 167.008 162.641 166.33C162.974 165.648 163.444 165.116 164.05 164.733C164.656 164.35 165.37 164.159 166.192 164.159C166.855 164.159 167.446 164.282 167.964 164.528C168.483 164.771 168.902 165.112 169.22 165.551C169.542 165.991 169.733 166.504 169.794 167.091H168.141C168.05 166.682 167.841 166.33 167.516 166.034C167.194 165.739 166.762 165.591 166.22 165.591C165.747 165.591 165.332 165.716 164.976 165.966C164.624 166.212 164.349 166.564 164.152 167.023C163.955 167.477 163.857 168.015 163.857 168.636C163.857 169.273 163.953 169.822 164.146 170.284C164.339 170.746 164.612 171.104 164.964 171.358C165.321 171.612 165.739 171.739 166.22 171.739C166.542 171.739 166.834 171.68 167.095 171.562C167.36 171.441 167.582 171.269 167.76 171.045C167.942 170.822 168.069 170.553 168.141 170.239H169.794C169.733 170.803 169.55 171.307 169.243 171.75C168.936 172.193 168.525 172.542 168.01 172.795C167.499 173.049 166.898 173.176 166.209 173.176ZM175.685 164.273V165.636H170.918V164.273H175.685ZM172.196 162.182H173.895V170.438C173.895 170.767 173.944 171.015 174.043 171.182C174.141 171.345 174.268 171.456 174.423 171.517C174.582 171.574 174.755 171.602 174.94 171.602C175.077 171.602 175.196 171.593 175.298 171.574C175.401 171.555 175.48 171.54 175.537 171.528L175.844 172.932C175.745 172.97 175.605 173.008 175.423 173.045C175.241 173.087 175.014 173.11 174.741 173.114C174.295 173.121 173.878 173.042 173.491 172.875C173.105 172.708 172.793 172.451 172.554 172.102C172.315 171.754 172.196 171.316 172.196 170.79V162.182ZM183.092 169.381V164.273H184.797V173H183.126V171.489H183.036C182.835 171.955 182.513 172.343 182.07 172.653C181.63 172.96 181.083 173.114 180.428 173.114C179.867 173.114 179.371 172.991 178.939 172.744C178.511 172.494 178.174 172.125 177.928 171.636C177.685 171.148 177.564 170.544 177.564 169.824V164.273H179.263V169.619C179.263 170.214 179.428 170.687 179.757 171.04C180.087 171.392 180.515 171.568 181.041 171.568C181.359 171.568 181.676 171.489 181.99 171.33C182.308 171.17 182.571 170.93 182.78 170.608C182.992 170.286 183.096 169.877 183.092 169.381ZM187.08 173V164.273H188.722V165.659H188.812C188.972 165.189 189.252 164.82 189.653 164.551C190.059 164.278 190.517 164.142 191.028 164.142C191.134 164.142 191.259 164.146 191.403 164.153C191.551 164.161 191.667 164.17 191.75 164.182V165.807C191.682 165.788 191.561 165.767 191.386 165.744C191.212 165.718 191.038 165.705 190.864 165.705C190.462 165.705 190.104 165.79 189.79 165.96C189.479 166.127 189.233 166.36 189.051 166.659C188.869 166.955 188.778 167.292 188.778 167.67V173H187.08ZM196.669 173.176C195.809 173.176 195.069 172.992 194.447 172.625C193.83 172.254 193.353 171.733 193.016 171.062C192.682 170.388 192.516 169.598 192.516 168.693C192.516 167.799 192.682 167.011 193.016 166.33C193.353 165.648 193.822 165.116 194.425 164.733C195.031 164.35 195.739 164.159 196.55 164.159C197.042 164.159 197.519 164.241 197.982 164.403C198.444 164.566 198.858 164.822 199.226 165.17C199.593 165.519 199.883 165.972 200.095 166.528C200.307 167.081 200.413 167.754 200.413 168.545V169.148H193.476V167.875H198.749C198.749 167.428 198.658 167.032 198.476 166.688C198.294 166.339 198.038 166.064 197.709 165.864C197.383 165.663 197 165.562 196.561 165.562C196.084 165.562 195.667 165.68 195.311 165.915C194.959 166.146 194.686 166.449 194.493 166.824C194.304 167.195 194.209 167.598 194.209 168.034V169.028C194.209 169.612 194.311 170.108 194.516 170.517C194.724 170.926 195.014 171.239 195.385 171.455C195.756 171.667 196.19 171.773 196.686 171.773C197.008 171.773 197.302 171.727 197.567 171.636C197.832 171.542 198.061 171.402 198.254 171.216C198.447 171.03 198.595 170.801 198.697 170.528L200.305 170.818C200.177 171.292 199.946 171.706 199.612 172.062C199.283 172.415 198.868 172.689 198.368 172.886C197.872 173.08 197.305 173.176 196.669 173.176ZM207.027 167.182C207.027 165.758 207.214 164.447 207.589 163.25C207.964 162.053 208.512 160.949 209.232 159.938H210.788C210.508 160.312 210.247 160.773 210.004 161.318C209.762 161.864 209.55 162.462 209.368 163.114C209.186 163.761 209.044 164.434 208.942 165.131C208.839 165.824 208.788 166.508 208.788 167.182C208.788 168.083 208.877 168.996 209.055 169.92C209.233 170.845 209.474 171.703 209.777 172.494C210.08 173.286 210.417 173.932 210.788 174.432H209.232C208.512 173.42 207.964 172.316 207.589 171.119C207.214 169.922 207.027 168.61 207.027 167.182ZM214.472 161.364V173H212.716V161.364H214.472ZM218.011 173H216.148L220.335 161.364H222.364L226.551 173H224.688L221.398 163.477H221.307L218.011 173ZM218.324 168.443H224.369V169.92H218.324V168.443ZM231.362 167.182C231.362 168.61 231.175 169.922 230.8 171.119C230.425 172.316 229.877 173.42 229.158 174.432H227.601C227.881 174.057 228.143 173.597 228.385 173.051C228.627 172.506 228.839 171.909 229.021 171.261C229.203 170.61 229.345 169.936 229.447 169.239C229.55 168.542 229.601 167.856 229.601 167.182C229.601 166.284 229.512 165.373 229.334 164.449C229.156 163.525 228.915 162.667 228.612 161.875C228.309 161.083 227.972 160.438 227.601 159.938H229.158C229.877 160.949 230.425 162.053 230.8 163.25C231.175 164.447 231.362 165.758 231.362 167.182Z" fill="#7C7C7C"/>
<path d="M74.7486 237.364L77.9872 246.841H78.1179L81.3565 237.364H83.2543L79.0668 249H77.0384L72.8509 237.364H74.7486ZM84.7983 249V240.273H86.4972V249H84.7983ZM85.6562 238.926C85.3608 238.926 85.107 238.828 84.8949 238.631C84.6866 238.43 84.5824 238.191 84.5824 237.915C84.5824 237.634 84.6866 237.396 84.8949 237.199C85.107 236.998 85.3608 236.898 85.6562 236.898C85.9517 236.898 86.2036 236.998 86.4119 237.199C86.6241 237.396 86.7301 237.634 86.7301 237.915C86.7301 238.191 86.6241 238.43 86.4119 238.631C86.2036 238.828 85.9517 238.926 85.6562 238.926ZM95.3224 242.403L93.7827 242.676C93.7183 242.479 93.616 242.292 93.4759 242.114C93.3395 241.936 93.1539 241.79 92.919 241.676C92.6842 241.562 92.3906 241.506 92.0384 241.506C91.5573 241.506 91.1558 241.614 90.8338 241.83C90.5118 242.042 90.3509 242.316 90.3509 242.653C90.3509 242.945 90.4588 243.18 90.6747 243.358C90.8906 243.536 91.2391 243.682 91.7202 243.795L93.1065 244.114C93.9096 244.299 94.508 244.585 94.902 244.972C95.2959 245.358 95.4929 245.86 95.4929 246.477C95.4929 247 95.3414 247.466 95.0384 247.875C94.7391 248.28 94.3205 248.598 93.7827 248.83C93.2486 249.061 92.6293 249.176 91.9247 249.176C90.9474 249.176 90.1501 248.968 89.5327 248.551C88.9152 248.131 88.5365 247.534 88.3963 246.761L90.0384 246.511C90.1406 246.939 90.3509 247.263 90.669 247.483C90.9872 247.699 91.402 247.807 91.9134 247.807C92.4702 247.807 92.9152 247.691 93.2486 247.46C93.5819 247.225 93.7486 246.939 93.7486 246.602C93.7486 246.33 93.6463 246.1 93.4418 245.915C93.241 245.729 92.9323 245.589 92.5156 245.494L91.0384 245.17C90.224 244.985 89.6217 244.689 89.2315 244.284C88.8452 243.879 88.652 243.366 88.652 242.744C88.652 242.229 88.7959 241.778 89.0838 241.392C89.3717 241.006 89.7694 240.705 90.277 240.489C90.7846 240.269 91.366 240.159 92.0213 240.159C92.9645 240.159 93.7069 240.364 94.2486 240.773C94.7902 241.178 95.1482 241.722 95.3224 242.403ZM102.889 245.381V240.273H104.594V249H102.923V247.489H102.832C102.632 247.955 102.31 248.343 101.866 248.653C101.427 248.96 100.88 249.114 100.224 249.114C99.6638 249.114 99.1676 248.991 98.7358 248.744C98.3078 248.494 97.9706 248.125 97.7244 247.636C97.482 247.148 97.3608 246.544 97.3608 245.824V240.273H99.0597V245.619C99.0597 246.214 99.2244 246.687 99.554 247.04C99.8835 247.392 100.312 247.568 100.838 247.568C101.156 247.568 101.473 247.489 101.787 247.33C102.105 247.17 102.368 246.93 102.577 246.608C102.789 246.286 102.893 245.877 102.889 245.381ZM109.416 249.193C108.863 249.193 108.363 249.091 107.916 248.886C107.469 248.678 107.115 248.377 106.854 247.983C106.596 247.589 106.467 247.106 106.467 246.534C106.467 246.042 106.562 245.636 106.751 245.318C106.941 245 107.196 244.748 107.518 244.562C107.84 244.377 108.2 244.237 108.598 244.142C108.996 244.047 109.401 243.975 109.814 243.926C110.337 243.866 110.761 243.816 111.087 243.778C111.412 243.737 111.649 243.67 111.797 243.58C111.945 243.489 112.018 243.341 112.018 243.136V243.097C112.018 242.6 111.878 242.216 111.598 241.943C111.321 241.67 110.909 241.534 110.359 241.534C109.787 241.534 109.337 241.661 109.007 241.915C108.681 242.165 108.456 242.443 108.331 242.75L106.734 242.386C106.924 241.856 107.2 241.428 107.564 241.102C107.931 240.773 108.354 240.534 108.831 240.386C109.308 240.235 109.81 240.159 110.337 240.159C110.685 240.159 111.054 240.201 111.445 240.284C111.839 240.364 112.206 240.511 112.547 240.727C112.892 240.943 113.174 241.252 113.393 241.653C113.613 242.051 113.723 242.568 113.723 243.205V249H112.064V247.807H111.996C111.886 248.027 111.721 248.242 111.501 248.455C111.282 248.667 111 248.843 110.655 248.983C110.31 249.123 109.897 249.193 109.416 249.193ZM109.786 247.83C110.255 247.83 110.657 247.737 110.99 247.551C111.327 247.366 111.583 247.123 111.757 246.824C111.935 246.521 112.024 246.197 112.024 245.852V244.727C111.964 244.788 111.846 244.845 111.672 244.898C111.501 244.947 111.306 244.991 111.087 245.028C110.867 245.062 110.653 245.095 110.445 245.125C110.236 245.152 110.062 245.174 109.922 245.193C109.592 245.235 109.291 245.305 109.018 245.403C108.75 245.502 108.534 245.644 108.371 245.83C108.212 246.011 108.132 246.254 108.132 246.557C108.132 246.977 108.287 247.295 108.598 247.511C108.909 247.723 109.304 247.83 109.786 247.83ZM117.685 237.364V249H115.986V237.364H117.685ZM128.108 249H124.341V237.364H128.227C129.367 237.364 130.347 237.597 131.165 238.062C131.983 238.525 132.61 239.189 133.045 240.057C133.485 240.92 133.705 241.956 133.705 243.165C133.705 244.377 133.483 245.419 133.04 246.29C132.6 247.161 131.964 247.831 131.131 248.301C130.297 248.767 129.29 249 128.108 249ZM126.097 247.466H128.011C128.898 247.466 129.634 247.299 130.222 246.966C130.809 246.629 131.248 246.142 131.54 245.506C131.831 244.866 131.977 244.085 131.977 243.165C131.977 242.252 131.831 241.477 131.54 240.841C131.252 240.205 130.822 239.722 130.25 239.392C129.678 239.062 128.968 238.898 128.119 238.898H126.097V247.466ZM139.513 249.176C138.653 249.176 137.912 248.992 137.291 248.625C136.674 248.254 136.196 247.733 135.859 247.062C135.526 246.388 135.359 245.598 135.359 244.693C135.359 243.799 135.526 243.011 135.859 242.33C136.196 241.648 136.666 241.116 137.268 240.733C137.875 240.35 138.583 240.159 139.393 240.159C139.886 240.159 140.363 240.241 140.825 240.403C141.287 240.566 141.702 240.822 142.07 241.17C142.437 241.519 142.727 241.972 142.939 242.528C143.151 243.081 143.257 243.754 143.257 244.545V245.148H136.32V243.875H141.592C141.592 243.428 141.501 243.032 141.32 242.688C141.138 242.339 140.882 242.064 140.553 241.864C140.227 241.663 139.844 241.562 139.405 241.562C138.928 241.562 138.511 241.68 138.155 241.915C137.803 242.146 137.53 242.449 137.337 242.824C137.147 243.195 137.053 243.598 137.053 244.034V245.028C137.053 245.612 137.155 246.108 137.359 246.517C137.568 246.926 137.857 247.239 138.229 247.455C138.6 247.667 139.034 247.773 139.53 247.773C139.852 247.773 140.145 247.727 140.411 247.636C140.676 247.542 140.905 247.402 141.098 247.216C141.291 247.03 141.439 246.801 141.541 246.528L143.149 246.818C143.02 247.292 142.789 247.706 142.456 248.062C142.126 248.415 141.712 248.689 141.212 248.886C140.715 249.08 140.149 249.176 139.513 249.176ZM151.682 242.403L150.142 242.676C150.078 242.479 149.975 242.292 149.835 242.114C149.699 241.936 149.513 241.79 149.278 241.676C149.044 241.562 148.75 241.506 148.398 241.506C147.917 241.506 147.515 241.614 147.193 241.83C146.871 242.042 146.71 242.316 146.71 242.653C146.71 242.945 146.818 243.18 147.034 243.358C147.25 243.536 147.598 243.682 148.08 243.795L149.466 244.114C150.269 244.299 150.867 244.585 151.261 244.972C151.655 245.358 151.852 245.86 151.852 246.477C151.852 247 151.701 247.466 151.398 247.875C151.098 248.28 150.68 248.598 150.142 248.83C149.608 249.061 148.989 249.176 148.284 249.176C147.307 249.176 146.509 248.968 145.892 248.551C145.275 248.131 144.896 247.534 144.756 246.761L146.398 246.511C146.5 246.939 146.71 247.263 147.028 247.483C147.347 247.699 147.761 247.807 148.273 247.807C148.83 247.807 149.275 247.691 149.608 247.46C149.941 247.225 150.108 246.939 150.108 246.602C150.108 246.33 150.006 246.1 149.801 245.915C149.6 245.729 149.292 245.589 148.875 245.494L147.398 245.17C146.583 244.985 145.981 244.689 145.591 244.284C145.205 243.879 145.011 243.366 145.011 242.744C145.011 242.229 145.155 241.778 145.443 241.392C145.731 241.006 146.129 240.705 146.636 240.489C147.144 240.269 147.725 240.159 148.381 240.159C149.324 240.159 150.066 240.364 150.608 240.773C151.15 241.178 151.508 241.722 151.682 242.403ZM153.72 249V240.273H155.419V249H153.72ZM154.578 238.926C154.283 238.926 154.029 238.828 153.817 238.631C153.608 238.43 153.504 238.191 153.504 237.915C153.504 237.634 153.608 237.396 153.817 237.199C154.029 236.998 154.283 236.898 154.578 236.898C154.874 236.898 155.125 236.998 155.334 237.199C155.546 237.396 155.652 237.634 155.652 237.915C155.652 238.191 155.546 238.43 155.334 238.631C155.125 238.828 154.874 238.926 154.578 238.926ZM161.364 252.455C160.67 252.455 160.074 252.364 159.574 252.182C159.078 252 158.672 251.759 158.358 251.46C158.044 251.161 157.809 250.833 157.653 250.477L159.114 249.875C159.216 250.042 159.352 250.218 159.523 250.403C159.697 250.593 159.932 250.754 160.227 250.886C160.527 251.019 160.911 251.085 161.381 251.085C162.025 251.085 162.557 250.928 162.977 250.614C163.398 250.303 163.608 249.807 163.608 249.125V247.409H163.5C163.398 247.595 163.25 247.801 163.057 248.028C162.867 248.256 162.606 248.453 162.273 248.619C161.939 248.786 161.506 248.869 160.972 248.869C160.282 248.869 159.661 248.708 159.108 248.386C158.559 248.061 158.123 247.581 157.801 246.949C157.483 246.312 157.324 245.53 157.324 244.602C157.324 243.674 157.481 242.879 157.795 242.216C158.114 241.553 158.549 241.045 159.102 240.693C159.655 240.337 160.282 240.159 160.983 240.159C161.525 240.159 161.962 240.25 162.295 240.432C162.629 240.61 162.888 240.818 163.074 241.057C163.263 241.295 163.409 241.506 163.511 241.688H163.636V240.273H165.301V249.193C165.301 249.943 165.127 250.559 164.778 251.04C164.43 251.521 163.958 251.877 163.364 252.108C162.773 252.339 162.106 252.455 161.364 252.455ZM161.347 247.46C161.835 247.46 162.248 247.347 162.585 247.119C162.926 246.888 163.184 246.559 163.358 246.131C163.536 245.699 163.625 245.182 163.625 244.58C163.625 243.992 163.538 243.475 163.364 243.028C163.189 242.581 162.934 242.233 162.597 241.983C162.259 241.729 161.843 241.602 161.347 241.602C160.835 241.602 160.409 241.735 160.068 242C159.727 242.261 159.47 242.617 159.295 243.068C159.125 243.519 159.04 244.023 159.04 244.58C159.04 245.152 159.127 245.653 159.301 246.085C159.475 246.517 159.733 246.854 160.074 247.097C160.419 247.339 160.843 247.46 161.347 247.46ZM169.278 243.818V249H167.58V240.273H169.21V241.693H169.318C169.519 241.231 169.833 240.86 170.261 240.58C170.693 240.299 171.237 240.159 171.892 240.159C172.487 240.159 173.008 240.284 173.455 240.534C173.902 240.78 174.248 241.148 174.494 241.636C174.741 242.125 174.864 242.729 174.864 243.449V249H173.165V243.653C173.165 243.021 173 242.527 172.67 242.17C172.341 241.811 171.888 241.631 171.312 241.631C170.919 241.631 170.568 241.716 170.261 241.886C169.958 242.057 169.718 242.307 169.54 242.636C169.366 242.962 169.278 243.356 169.278 243.818Z" fill="#7C7C7C"/>
</svg>
