<svg width="74" height="74" viewBox="0 0 74 74" fill="none" xmlns="http://www.w3.org/2000/svg">
<rect width="74" height="74" rx="10" fill="#8BB0DB"/>
<g clip-path="url(#clip0_26_261)">
<path fill-rule="evenodd" clip-rule="evenodd" d="M27.7718 28.0179C26.8832 28.0179 26.0033 28.1985 25.1823 28.5493C24.3614 28.9001 23.6154 29.4143 22.9871 30.0625C22.3588 30.7108 21.8604 31.4803 21.5203 32.3272C21.1803 33.1742 21.0052 34.0819 21.0052 34.9986C21.0052 35.9154 21.1803 36.8231 21.5203 37.67C21.8604 38.517 22.3588 39.2865 22.9871 39.9348C23.6154 40.583 24.3614 41.0972 25.1823 41.448C26.0033 41.7988 26.8832 41.9794 27.7718 41.9794H34.5383V35.1392C34.5373 35.0455 34.5373 34.9518 34.5383 34.8581V28.0179H27.7718ZM34.5383 23.9641H27.7718C25.9768 23.9641 24.2554 23.2285 22.9862 21.9191C21.717 20.6097 21.0039 18.8338 21.0039 16.9821C21.0039 15.1303 21.717 13.3544 22.9862 12.045C24.2554 10.7356 25.9768 10 27.7718 10H34.5383V23.9641ZM38.4678 10V23.9641H45.2343C47.0062 23.9281 48.6938 23.1767 49.9346 21.8713C51.1753 20.5658 51.8704 18.8104 51.8704 16.9821C51.8704 15.1537 51.1753 13.3983 49.9346 12.0929C48.6938 10.7874 47.0062 10.036 45.2343 10H38.4678ZM45.2343 28.0152C43.4582 28.015 41.7532 28.7352 40.4873 30.0205C39.2213 31.3058 38.496 33.053 38.4678 34.8851V35.1095C38.4895 36.4851 38.9047 37.8234 39.6613 38.9563C40.4178 40.0893 41.4821 40.9663 42.7202 41.4773C43.9584 41.9883 45.3153 42.1104 46.6206 41.8284C47.9258 41.5464 49.1212 40.8727 50.0565 39.8921C50.9919 38.9114 51.6255 37.6675 51.8778 36.3166C52.1301 34.9657 51.9898 33.5679 51.4746 32.299C50.9594 31.03 50.0922 29.9464 48.982 29.1843C47.8717 28.4221 46.5679 28.0154 45.2343 28.0152ZM27.7718 46.0332C26.4329 46.0327 25.1239 46.4418 24.0103 47.2088C22.8968 47.9758 22.0288 49.0663 21.516 50.3423C21.0033 51.6183 20.8689 53.0225 21.1298 54.3773C21.3906 55.7322 22.0351 56.9767 22.9817 57.9537C23.9283 58.9306 25.1344 59.5959 26.4476 59.8656C27.7608 60.1353 29.122 59.9972 30.359 59.4687C31.5961 58.9402 32.6534 58.0451 33.3973 56.8966C34.1413 55.7482 34.5383 54.3979 34.5383 53.0166V46.0332H27.7718Z" fill="white"/>
</g>
<defs>
<clipPath id="clip0_26_261">
<rect width="47" height="49" fill="white" transform="translate(13 11)"/>
</clipPath>
</defs>
</svg>
