<svg width="74" height="74" viewBox="0 0 74 74" fill="none" xmlns="http://www.w3.org/2000/svg">
<rect width="74" height="74" rx="10" fill="#8BB0DB"/>
<path d="M31.156 34.2036C21.5367 40.7533 15.8177 56.5153 17.2066 62C22.1591 46.1848 35.2434 42.6097 43.1007 38.1574C56.3153 30.6694 57.5647 16.8442 54.7869 11C59.1044 21.9588 41.5134 27.1513 31.156 34.2036Z" fill="#8BB0DB"/>
<path d="M31.156 34.2036C21.5367 40.7533 15.8177 56.5153 17.2066 62C22.1591 46.1848 35.2434 42.6097 43.1007 38.1574C56.3153 30.6694 57.5647 16.8442 54.7869 11C59.1044 21.9588 41.5134 27.1513 31.156 34.2036Z" fill="white"/>
<path d="M31.156 34.2036C21.5367 40.7533 15.8177 56.5153 17.2066 62C22.1591 46.1848 35.2434 42.6097 43.1007 38.1574C56.3153 30.6694 57.5647 16.8442 54.7869 11C59.1044 21.9588 41.5134 27.1513 31.156 34.2036Z" stroke="white"/>
</svg>
