<svg width="586" height="250" viewBox="0 0 586 250" fill="none" xmlns="http://www.w3.org/2000/svg">
<path d="M0.75 60C0.75 45.8367 0.751593 35.2896 1.84166 27.1818C2.92883 19.0955 5.08631 13.5479 9.31713 9.31713C13.5479 5.08631 19.0955 2.92883 27.1818 1.84166C35.2896 0.751593 45.8367 0.75 60 0.75H526C540.163 0.75 550.71 0.751593 558.818 1.84166C566.904 2.92883 572.452 5.08631 576.683 9.31713C580.914 13.5479 583.071 19.0955 584.158 27.1818C585.248 35.2896 585.25 45.8367 585.25 60V190C585.25 204.163 585.248 214.71 584.158 222.818C583.071 230.904 580.914 236.452 576.683 240.683C572.452 244.914 566.904 247.071 558.818 248.158C550.71 249.248 540.163 249.25 526 249.25H60C45.8367 249.25 35.2896 249.248 27.1818 248.158C19.0955 247.071 13.5479 244.914 9.31713 240.683C5.08631 236.452 2.92883 230.904 1.84166 222.818C0.751593 214.71 0.75 204.163 0.75 190V60Z" stroke="#8BB0DB" stroke-width="1.5"/>
</svg>
