<svg width="248" height="261" viewBox="0 0 248 261" fill="none" xmlns="http://www.w3.org/2000/svg">
<rect x="0.75" y="0.75" width="246.5" height="34.5" rx="17.25" stroke="#8BB0DB" stroke-width="1.5"/>
<rect x="0.75" y="75.75" width="246.5" height="34.5" rx="17.25" stroke="#8BB0DB" stroke-width="1.5"/>
<rect x="0.75" y="150.75" width="246.5" height="34.5" rx="17.25" stroke="#8BB0DB" stroke-width="1.5"/>
<rect x="0.75" y="225.75" width="246.5" height="34.5" rx="17.25" stroke="#8BB0DB" stroke-width="1.5"/>
<path d="M52.892 12.875V11.3636H61.8977V12.875H58.267V23H56.517V12.875H52.892ZM63.7514 23V14.2727H65.4503V23H63.7514ZM64.6094 12.9261C64.3139 12.9261 64.0601 12.8277 63.848 12.6307C63.6397 12.4299 63.5355 12.1913 63.5355 11.9148C63.5355 11.6345 63.6397 11.3958 63.848 11.1989C64.0601 10.9981 64.3139 10.8977 64.6094 10.8977C64.9048 10.8977 65.1567 10.9981 65.3651 11.1989C65.5772 11.3958 65.6832 11.6345 65.6832 11.9148C65.6832 12.1913 65.5772 12.4299 65.3651 12.6307C65.1567 12.8277 64.9048 12.9261 64.6094 12.9261ZM67.7358 23V14.2727H69.3665V15.6932H69.4744C69.6563 15.2121 69.9536 14.8371 70.3665 14.5682C70.7794 14.2955 71.2737 14.1591 71.8494 14.1591C72.4328 14.1591 72.9214 14.2955 73.3153 14.5682C73.7131 14.8409 74.0066 15.2159 74.196 15.6932H74.2869C74.4953 15.2273 74.8267 14.8561 75.2812 14.5795C75.7358 14.2992 76.2775 14.1591 76.9062 14.1591C77.6979 14.1591 78.3438 14.4072 78.8438 14.9034C79.3475 15.3996 79.5994 16.1477 79.5994 17.1477V23H77.9006V17.3068C77.9006 16.7159 77.7396 16.2879 77.4176 16.0227C77.0956 15.7576 76.7112 15.625 76.2642 15.625C75.7112 15.625 75.2812 15.7955 74.9744 16.1364C74.6676 16.4735 74.5142 16.9072 74.5142 17.4375V23H72.821V17.1989C72.821 16.7254 72.6733 16.3447 72.3778 16.0568C72.0824 15.7689 71.6979 15.625 71.2244 15.625C70.9025 15.625 70.6051 15.7102 70.3324 15.8807C70.0634 16.0473 69.8456 16.2803 69.679 16.5795C69.5161 16.8788 69.4347 17.2254 69.4347 17.6193V23H67.7358ZM85.6378 23.1761C84.7779 23.1761 84.0374 22.9924 83.4162 22.625C82.7988 22.2538 82.3215 21.733 81.9844 21.0625C81.651 20.3883 81.4844 19.5985 81.4844 18.6932C81.4844 17.7992 81.651 17.0114 81.9844 16.3295C82.3215 15.6477 82.7912 15.1155 83.3935 14.733C83.9995 14.3504 84.7079 14.1591 85.5185 14.1591C86.0109 14.1591 86.4882 14.2405 86.9503 14.4034C87.4124 14.5663 87.8272 14.822 88.1946 15.1705C88.562 15.5189 88.8518 15.9716 89.0639 16.5284C89.276 17.0814 89.3821 17.7538 89.3821 18.5455V19.1477H82.4446V17.875H87.7173C87.7173 17.428 87.6264 17.0322 87.4446 16.6875C87.2628 16.339 87.0071 16.0644 86.6776 15.8636C86.3518 15.6629 85.9692 15.5625 85.5298 15.5625C85.0526 15.5625 84.6359 15.6799 84.2798 15.9148C83.9276 16.1458 83.6548 16.4489 83.4616 16.8239C83.2723 17.1951 83.1776 17.5985 83.1776 18.0341V19.0284C83.1776 19.6117 83.2798 20.108 83.4844 20.517C83.6927 20.9261 83.9825 21.2386 84.3537 21.4545C84.7249 21.6667 85.1586 21.7727 85.6548 21.7727C85.9768 21.7727 86.2704 21.7273 86.5355 21.6364C86.8007 21.5417 87.0298 21.4015 87.223 21.2159C87.4162 21.0303 87.5639 20.8011 87.6662 20.5284L89.2741 20.8182C89.1454 21.2917 88.9143 21.7064 88.581 22.0625C88.2514 22.4148 87.8366 22.6894 87.3366 22.8864C86.8404 23.0795 86.2741 23.1761 85.6378 23.1761ZM95.6378 11.3636H97.7685L101.473 20.4091H101.609L105.314 11.3636H107.445V23H105.774V14.5795H105.666L102.234 22.983H100.848L97.4162 14.5739H97.3082V23H95.6378V11.3636ZM112.401 23.1932C111.848 23.1932 111.348 23.0909 110.901 22.8864C110.454 22.678 110.099 22.3769 109.838 21.983C109.58 21.589 109.452 21.1061 109.452 20.5341C109.452 20.0417 109.546 19.6364 109.736 19.3182C109.925 19 110.181 18.7481 110.503 18.5625C110.825 18.3769 111.185 18.2367 111.582 18.142C111.98 18.0473 112.385 17.9754 112.798 17.9261C113.321 17.8655 113.745 17.8163 114.071 17.7784C114.397 17.7367 114.634 17.6705 114.781 17.5795C114.929 17.4886 115.003 17.3409 115.003 17.1364V17.0966C115.003 16.6004 114.863 16.2159 114.582 15.9432C114.306 15.6705 113.893 15.5341 113.344 15.5341C112.772 15.5341 112.321 15.661 111.991 15.9148C111.666 16.1648 111.44 16.4432 111.315 16.75L109.719 16.3864C109.908 15.8561 110.185 15.428 110.548 15.1023C110.916 14.7727 111.338 14.5341 111.815 14.3864C112.293 14.2348 112.795 14.1591 113.321 14.1591C113.67 14.1591 114.039 14.2008 114.429 14.2841C114.823 14.3636 115.19 14.5114 115.531 14.7273C115.876 14.9432 116.158 15.2519 116.378 15.6534C116.598 16.0511 116.707 16.5682 116.707 17.2045V23H115.048V21.8068H114.98C114.87 22.0265 114.705 22.2424 114.486 22.4545C114.266 22.6667 113.984 22.8428 113.639 22.983C113.295 23.1231 112.882 23.1932 112.401 23.1932ZM112.77 21.8295C113.24 21.8295 113.641 21.7367 113.974 21.5511C114.312 21.3655 114.567 21.1231 114.741 20.8239C114.92 20.5208 115.009 20.197 115.009 19.8523V18.7273C114.948 18.7879 114.83 18.8447 114.656 18.8977C114.486 18.947 114.291 18.9905 114.071 19.0284C113.851 19.0625 113.637 19.0947 113.429 19.125C113.221 19.1515 113.046 19.1742 112.906 19.1932C112.577 19.2348 112.276 19.3049 112.003 19.4034C111.734 19.5019 111.518 19.6439 111.355 19.8295C111.196 20.0114 111.116 20.2538 111.116 20.5568C111.116 20.9773 111.272 21.2955 111.582 21.5114C111.893 21.7235 112.289 21.8295 112.77 21.8295ZM120.669 17.8182V23H118.97V14.2727H120.601V15.6932H120.709C120.91 15.2311 121.224 14.8598 121.652 14.5795C122.084 14.2992 122.627 14.1591 123.283 14.1591C123.877 14.1591 124.398 14.2841 124.845 14.5341C125.292 14.7803 125.639 15.1477 125.885 15.6364C126.131 16.125 126.254 16.7292 126.254 17.4489V23H124.555V17.6534C124.555 17.0208 124.391 16.5265 124.061 16.1705C123.732 15.8106 123.279 15.6307 122.703 15.6307C122.309 15.6307 121.959 15.7159 121.652 15.8864C121.349 16.0568 121.108 16.3068 120.93 16.6364C120.756 16.9621 120.669 17.3561 120.669 17.8182ZM131.072 23.1932C130.519 23.1932 130.019 23.0909 129.572 22.8864C129.125 22.678 128.771 22.3769 128.51 21.983C128.252 21.589 128.124 21.1061 128.124 20.5341C128.124 20.0417 128.218 19.6364 128.408 19.3182C128.597 19 128.853 18.7481 129.175 18.5625C129.497 18.3769 129.857 18.2367 130.254 18.142C130.652 18.0473 131.057 17.9754 131.47 17.9261C131.993 17.8655 132.417 17.8163 132.743 17.7784C133.069 17.7367 133.305 17.6705 133.453 17.5795C133.601 17.4886 133.675 17.3409 133.675 17.1364V17.0966C133.675 16.6004 133.535 16.2159 133.254 15.9432C132.978 15.6705 132.565 15.5341 132.016 15.5341C131.444 15.5341 130.993 15.661 130.663 15.9148C130.338 16.1648 130.112 16.4432 129.987 16.75L128.391 16.3864C128.58 15.8561 128.857 15.428 129.22 15.1023C129.588 14.7727 130.01 14.5341 130.487 14.3864C130.964 14.2348 131.466 14.1591 131.993 14.1591C132.341 14.1591 132.711 14.2008 133.101 14.2841C133.495 14.3636 133.862 14.5114 134.203 14.7273C134.548 14.9432 134.83 15.2519 135.05 15.6534C135.269 16.0511 135.379 16.5682 135.379 17.2045V23H133.72V21.8068H133.652C133.542 22.0265 133.377 22.2424 133.158 22.4545C132.938 22.6667 132.656 22.8428 132.311 22.983C131.966 23.1231 131.554 23.1932 131.072 23.1932ZM131.442 21.8295C131.911 21.8295 132.313 21.7367 132.646 21.5511C132.983 21.3655 133.239 21.1231 133.413 20.8239C133.591 20.5208 133.68 20.197 133.68 19.8523V18.7273C133.62 18.7879 133.502 18.8447 133.328 18.8977C133.158 18.947 132.963 18.9905 132.743 19.0284C132.523 19.0625 132.309 19.0947 132.101 19.125C131.893 19.1515 131.718 19.1742 131.578 19.1932C131.249 19.2348 130.947 19.3049 130.675 19.4034C130.406 19.5019 130.19 19.6439 130.027 19.8295C129.868 20.0114 129.788 20.2538 129.788 20.5568C129.788 20.9773 129.944 21.2955 130.254 21.5114C130.565 21.7235 130.961 21.8295 131.442 21.8295ZM141.301 26.4545C140.608 26.4545 140.011 26.3636 139.511 26.1818C139.015 26 138.61 25.7595 138.295 25.4602C137.981 25.161 137.746 24.8333 137.591 24.4773L139.051 23.875C139.153 24.0417 139.29 24.2178 139.46 24.4034C139.634 24.5928 139.869 24.7538 140.165 24.8864C140.464 25.0189 140.848 25.0852 141.318 25.0852C141.962 25.0852 142.494 24.928 142.915 24.6136C143.335 24.303 143.545 23.8068 143.545 23.125V21.4091H143.438C143.335 21.5947 143.188 21.8011 142.994 22.0284C142.805 22.2557 142.544 22.4527 142.21 22.6193C141.877 22.786 141.443 22.8693 140.909 22.8693C140.22 22.8693 139.598 22.7083 139.045 22.3864C138.496 22.0606 138.061 21.5814 137.739 20.9489C137.42 20.3125 137.261 19.5303 137.261 18.6023C137.261 17.6742 137.419 16.8788 137.733 16.2159C138.051 15.553 138.487 15.0455 139.04 14.6932C139.593 14.3371 140.22 14.1591 140.92 14.1591C141.462 14.1591 141.9 14.25 142.233 14.4318C142.566 14.6098 142.826 14.8182 143.011 15.0568C143.201 15.2955 143.347 15.5057 143.449 15.6875H143.574V14.2727H145.239V23.1932C145.239 23.9432 145.064 24.5587 144.716 25.0398C144.367 25.5208 143.896 25.8769 143.301 26.108C142.71 26.339 142.044 26.4545 141.301 26.4545ZM141.284 21.4602C141.773 21.4602 142.186 21.3466 142.523 21.1193C142.864 20.8883 143.121 20.5587 143.295 20.1307C143.473 19.6989 143.562 19.1818 143.562 18.5795C143.562 17.9924 143.475 17.4754 143.301 17.0284C143.127 16.5814 142.871 16.233 142.534 15.983C142.197 15.7292 141.78 15.6023 141.284 15.6023C140.773 15.6023 140.347 15.7348 140.006 16C139.665 16.2614 139.407 16.6174 139.233 17.0682C139.063 17.5189 138.977 18.0227 138.977 18.5795C138.977 19.1515 139.064 19.6534 139.239 20.0852C139.413 20.517 139.67 20.8542 140.011 21.0966C140.356 21.339 140.78 21.4602 141.284 21.4602ZM151.278 23.1761C150.419 23.1761 149.678 22.9924 149.057 22.625C148.439 22.2538 147.962 21.733 147.625 21.0625C147.292 20.3883 147.125 19.5985 147.125 18.6932C147.125 17.7992 147.292 17.0114 147.625 16.3295C147.962 15.6477 148.432 15.1155 149.034 14.733C149.64 14.3504 150.348 14.1591 151.159 14.1591C151.652 14.1591 152.129 14.2405 152.591 14.4034C153.053 14.5663 153.468 14.822 153.835 15.1705C154.203 15.5189 154.492 15.9716 154.705 16.5284C154.917 17.0814 155.023 17.7538 155.023 18.5455V19.1477H148.085V17.875H153.358C153.358 17.428 153.267 17.0322 153.085 16.6875C152.903 16.339 152.648 16.0644 152.318 15.8636C151.992 15.6629 151.61 15.5625 151.17 15.5625C150.693 15.5625 150.277 15.6799 149.92 15.9148C149.568 16.1458 149.295 16.4489 149.102 16.8239C148.913 17.1951 148.818 17.5985 148.818 18.0341V19.0284C148.818 19.6117 148.92 20.108 149.125 20.517C149.333 20.9261 149.623 21.2386 149.994 21.4545C150.366 21.6667 150.799 21.7727 151.295 21.7727C151.617 21.7727 151.911 21.7273 152.176 21.6364C152.441 21.5417 152.67 21.4015 152.864 21.2159C153.057 21.0303 153.205 20.8011 153.307 20.5284L154.915 20.8182C154.786 21.2917 154.555 21.7064 154.222 22.0625C153.892 22.4148 153.477 22.6894 152.977 22.8864C152.481 23.0795 151.915 23.1761 151.278 23.1761ZM156.908 23V14.2727H158.538V15.6932H158.646C158.828 15.2121 159.125 14.8371 159.538 14.5682C159.951 14.2955 160.446 14.1591 161.021 14.1591C161.605 14.1591 162.093 14.2955 162.487 14.5682C162.885 14.8409 163.179 15.2159 163.368 15.6932H163.459C163.667 15.2273 163.999 14.8561 164.453 14.5795C164.908 14.2992 165.449 14.1591 166.078 14.1591C166.87 14.1591 167.516 14.4072 168.016 14.9034C168.519 15.3996 168.771 16.1477 168.771 17.1477V23H167.072V17.3068C167.072 16.7159 166.911 16.2879 166.589 16.0227C166.268 15.7576 165.883 15.625 165.436 15.625C164.883 15.625 164.453 15.7955 164.146 16.1364C163.839 16.4735 163.686 16.9072 163.686 17.4375V23H161.993V17.1989C161.993 16.7254 161.845 16.3447 161.55 16.0568C161.254 15.7689 160.87 15.625 160.396 15.625C160.074 15.625 159.777 15.7102 159.504 15.8807C159.235 16.0473 159.018 16.2803 158.851 16.5795C158.688 16.8788 158.607 17.2254 158.607 17.6193V23H156.908ZM174.81 23.1761C173.95 23.1761 173.209 22.9924 172.588 22.625C171.971 22.2538 171.493 21.733 171.156 21.0625C170.823 20.3883 170.656 19.5985 170.656 18.6932C170.656 17.7992 170.823 17.0114 171.156 16.3295C171.493 15.6477 171.963 15.1155 172.565 14.733C173.171 14.3504 173.88 14.1591 174.69 14.1591C175.183 14.1591 175.66 14.2405 176.122 14.4034C176.584 14.5663 176.999 14.822 177.366 15.1705C177.734 15.5189 178.024 15.9716 178.236 16.5284C178.448 17.0814 178.554 17.7538 178.554 18.5455V19.1477H171.616V17.875H176.889C176.889 17.428 176.798 17.0322 176.616 16.6875C176.435 16.339 176.179 16.0644 175.849 15.8636C175.524 15.6629 175.141 15.5625 174.702 15.5625C174.224 15.5625 173.808 15.6799 173.452 15.9148C173.099 16.1458 172.827 16.4489 172.634 16.8239C172.444 17.1951 172.349 17.5985 172.349 18.0341V19.0284C172.349 19.6117 172.452 20.108 172.656 20.517C172.865 20.9261 173.154 21.2386 173.526 21.4545C173.897 21.6667 174.33 21.7727 174.827 21.7727C175.149 21.7727 175.442 21.7273 175.707 21.6364C175.973 21.5417 176.202 21.4015 176.395 21.2159C176.588 21.0303 176.736 20.8011 176.838 20.5284L178.446 20.8182C178.317 21.2917 178.086 21.7064 177.753 22.0625C177.423 22.4148 177.009 22.6894 176.509 22.8864C176.012 23.0795 175.446 23.1761 174.81 23.1761ZM182.138 17.8182V23H180.439V14.2727H182.07V15.6932H182.178C182.378 15.2311 182.693 14.8598 183.121 14.5795C183.553 14.2992 184.096 14.1591 184.751 14.1591C185.346 14.1591 185.867 14.2841 186.314 14.5341C186.761 14.7803 187.107 15.1477 187.354 15.6364C187.6 16.125 187.723 16.7292 187.723 17.4489V23H186.024V17.6534C186.024 17.0208 185.859 16.5265 185.53 16.1705C185.2 15.8106 184.748 15.6307 184.172 15.6307C183.778 15.6307 183.428 15.7159 183.121 15.8864C182.818 16.0568 182.577 16.3068 182.399 16.6364C182.225 16.9621 182.138 17.3561 182.138 17.8182ZM194.075 14.2727V15.6364H189.308V14.2727H194.075ZM190.587 12.1818H192.286V20.4375C192.286 20.767 192.335 21.0152 192.433 21.1818C192.532 21.3447 192.659 21.4564 192.814 21.517C192.973 21.5739 193.145 21.6023 193.331 21.6023C193.467 21.6023 193.587 21.5928 193.689 21.5739C193.791 21.5549 193.871 21.5398 193.928 21.5284L194.234 22.9318C194.136 22.9697 193.996 23.0076 193.814 23.0455C193.632 23.0871 193.405 23.1098 193.132 23.1136C192.685 23.1212 192.268 23.0417 191.882 22.875C191.496 22.7083 191.183 22.4508 190.945 22.1023C190.706 21.7538 190.587 21.3163 190.587 20.7898V12.1818Z" fill="#7C7C7C"/>
<path d="M85.2827 87.875V86.3636H94.2884V87.875H90.6577V98H88.9077V87.875H85.2827ZM98.6378 98.1761C97.7779 98.1761 97.0374 97.9924 96.4162 97.625C95.7988 97.2538 95.3215 96.733 94.9844 96.0625C94.651 95.3883 94.4844 94.5985 94.4844 93.6932C94.4844 92.7992 94.651 92.0114 94.9844 91.3295C95.3215 90.6477 95.7912 90.1155 96.3935 89.733C96.9995 89.3504 97.7079 89.1591 98.5185 89.1591C99.0109 89.1591 99.4882 89.2405 99.9503 89.4034C100.412 89.5663 100.827 89.822 101.195 90.1705C101.562 90.5189 101.852 90.9716 102.064 91.5284C102.276 92.0814 102.382 92.7538 102.382 93.5455V94.1477H95.4446V92.875H100.717C100.717 92.428 100.626 92.0322 100.445 91.6875C100.263 91.339 100.007 91.0644 99.6776 90.8636C99.3518 90.6629 98.9692 90.5625 98.5298 90.5625C98.0526 90.5625 97.6359 90.6799 97.2798 90.9148C96.9276 91.1458 96.6548 91.4489 96.4616 91.8239C96.2723 92.1951 96.1776 92.5985 96.1776 93.0341V94.0284C96.1776 94.6117 96.2798 95.108 96.4844 95.517C96.6927 95.9261 96.9825 96.2386 97.3537 96.4545C97.7249 96.6667 98.1586 96.7727 98.6548 96.7727C98.9768 96.7727 99.2704 96.7273 99.5355 96.6364C99.8007 96.5417 100.03 96.4015 100.223 96.2159C100.416 96.0303 100.564 95.8011 100.666 95.5284L102.274 95.8182C102.145 96.2917 101.914 96.7064 101.581 97.0625C101.251 97.4148 100.837 97.6894 100.337 97.8864C99.8404 98.0795 99.2741 98.1761 98.6378 98.1761ZM106.807 98.1932C106.254 98.1932 105.754 98.0909 105.307 97.8864C104.86 97.678 104.506 97.3769 104.244 96.983C103.987 96.589 103.858 96.1061 103.858 95.5341C103.858 95.0417 103.953 94.6364 104.142 94.3182C104.331 94 104.587 93.7481 104.909 93.5625C105.231 93.3769 105.591 93.2367 105.989 93.142C106.386 93.0473 106.792 92.9754 107.205 92.9261C107.727 92.8655 108.152 92.8163 108.477 92.7784C108.803 92.7367 109.04 92.6705 109.188 92.5795C109.335 92.4886 109.409 92.3409 109.409 92.1364V92.0966C109.409 91.6004 109.269 91.2159 108.989 90.9432C108.712 90.6705 108.299 90.5341 107.75 90.5341C107.178 90.5341 106.727 90.661 106.398 90.9148C106.072 91.1648 105.847 91.4432 105.722 91.75L104.125 91.3864C104.314 90.8561 104.591 90.428 104.955 90.1023C105.322 89.7727 105.744 89.5341 106.222 89.3864C106.699 89.2348 107.201 89.1591 107.727 89.1591C108.076 89.1591 108.445 89.2008 108.835 89.2841C109.229 89.3636 109.597 89.5114 109.938 89.7273C110.282 89.9432 110.564 90.2519 110.784 90.6534C111.004 91.0511 111.114 91.5682 111.114 92.2045V98H109.455V96.8068H109.386C109.277 97.0265 109.112 97.2424 108.892 97.4545C108.672 97.6667 108.39 97.8428 108.045 97.983C107.701 98.1231 107.288 98.1932 106.807 98.1932ZM107.176 96.8295C107.646 96.8295 108.047 96.7367 108.381 96.5511C108.718 96.3655 108.973 96.1231 109.148 95.8239C109.326 95.5208 109.415 95.197 109.415 94.8523V93.7273C109.354 93.7879 109.237 93.8447 109.062 93.8977C108.892 93.947 108.697 93.9905 108.477 94.0284C108.258 94.0625 108.044 94.0947 107.835 94.125C107.627 94.1515 107.453 94.1742 107.312 94.1932C106.983 94.2348 106.682 94.3049 106.409 94.4034C106.14 94.5019 105.924 94.6439 105.761 94.8295C105.602 95.0114 105.523 95.2538 105.523 95.5568C105.523 95.9773 105.678 96.2955 105.989 96.5114C106.299 96.7235 106.695 96.8295 107.176 96.8295ZM113.376 98V89.2727H115.007V90.6932H115.115C115.297 90.2121 115.594 89.8371 116.007 89.5682C116.42 89.2955 116.914 89.1591 117.49 89.1591C118.073 89.1591 118.562 89.2955 118.956 89.5682C119.354 89.8409 119.647 90.2159 119.837 90.6932H119.928C120.136 90.2273 120.467 89.8561 120.922 89.5795C121.376 89.2992 121.918 89.1591 122.547 89.1591C123.339 89.1591 123.984 89.4072 124.484 89.9034C124.988 90.3996 125.24 91.1477 125.24 92.1477V98H123.541V92.3068C123.541 91.7159 123.38 91.2879 123.058 91.0227C122.736 90.7576 122.352 90.625 121.905 90.625C121.352 90.625 120.922 90.7955 120.615 91.1364C120.308 91.4735 120.155 91.9072 120.155 92.4375V98H118.462V92.1989C118.462 91.7254 118.314 91.3447 118.018 91.0568C117.723 90.7689 117.339 90.625 116.865 90.625C116.543 90.625 116.246 90.7102 115.973 90.8807C115.704 91.0473 115.486 91.2803 115.32 91.5795C115.157 91.8788 115.075 92.2254 115.075 92.6193V98H113.376ZM129.409 98L126.841 89.2727H128.597L130.307 95.6818H130.392L132.108 89.2727H133.864L135.568 95.6534H135.653L137.352 89.2727H139.108L136.545 98H134.812L133.04 91.6989H132.909L131.136 98H129.409ZM144.131 98.1761C143.313 98.1761 142.598 97.9886 141.989 97.6136C141.379 97.2386 140.905 96.714 140.568 96.0398C140.231 95.3655 140.062 94.5777 140.062 93.6761C140.062 92.7708 140.231 91.9792 140.568 91.3011C140.905 90.6231 141.379 90.0966 141.989 89.7216C142.598 89.3466 143.313 89.1591 144.131 89.1591C144.949 89.1591 145.663 89.3466 146.273 89.7216C146.883 90.0966 147.356 90.6231 147.693 91.3011C148.03 91.9792 148.199 92.7708 148.199 93.6761C148.199 94.5777 148.03 95.3655 147.693 96.0398C147.356 96.714 146.883 97.2386 146.273 97.6136C145.663 97.9886 144.949 98.1761 144.131 98.1761ZM144.136 96.75C144.667 96.75 145.106 96.6098 145.455 96.3295C145.803 96.0492 146.061 95.6761 146.227 95.2102C146.398 94.7443 146.483 94.2311 146.483 93.6705C146.483 93.1136 146.398 92.6023 146.227 92.1364C146.061 91.6667 145.803 91.2898 145.455 91.0057C145.106 90.7216 144.667 90.5795 144.136 90.5795C143.602 90.5795 143.159 90.7216 142.807 91.0057C142.458 91.2898 142.199 91.6667 142.028 92.1364C141.862 92.6023 141.778 93.1136 141.778 93.6705C141.778 94.2311 141.862 94.7443 142.028 95.2102C142.199 95.6761 142.458 96.0492 142.807 96.3295C143.159 96.6098 143.602 96.75 144.136 96.75ZM150.095 98V89.2727H151.737V90.6591H151.828C151.987 90.1894 152.268 89.8201 152.669 89.5511C153.074 89.2784 153.533 89.142 154.044 89.142C154.15 89.142 154.275 89.1458 154.419 89.1534C154.567 89.161 154.682 89.1705 154.766 89.1818V90.8068C154.697 90.7879 154.576 90.767 154.402 90.7443C154.228 90.7178 154.054 90.7045 153.879 90.7045C153.478 90.7045 153.12 90.7898 152.805 90.9602C152.495 91.1269 152.249 91.3598 152.067 91.6591C151.885 91.9545 151.794 92.2917 151.794 92.6705V98H150.095ZM157.798 95.0398L157.787 92.9659H158.082L161.56 89.2727H163.594L159.628 93.4773H159.361L157.798 95.0398ZM156.236 98V86.3636H157.935V98H156.236ZM161.747 98L158.622 93.8523L159.793 92.6648L163.832 98H161.747Z" fill="#7C7C7C"/>
<path d="M77.152 173H75.2884L79.4759 161.364H81.5043L85.6918 173H83.8281L80.5384 163.477H80.4474L77.152 173ZM77.4645 168.443H83.5099V169.92H77.4645V168.443ZM90.3622 173.17C89.6577 173.17 89.0289 172.991 88.4759 172.631C87.9266 172.267 87.4948 171.75 87.1804 171.08C86.8698 170.405 86.7145 169.597 86.7145 168.653C86.7145 167.71 86.8717 166.903 87.1861 166.233C87.5043 165.562 87.9399 165.049 88.4929 164.693C89.0459 164.337 89.6728 164.159 90.3736 164.159C90.9152 164.159 91.3509 164.25 91.6804 164.432C92.0137 164.61 92.2713 164.818 92.4531 165.057C92.6387 165.295 92.7827 165.506 92.8849 165.688H92.9872V161.364H94.6861V173H93.027V171.642H92.8849C92.7827 171.828 92.6349 172.04 92.4418 172.278C92.2524 172.517 91.991 172.725 91.6577 172.903C91.3243 173.081 90.8925 173.17 90.3622 173.17ZM90.7372 171.722C91.2259 171.722 91.6387 171.593 91.9759 171.335C92.3168 171.074 92.5743 170.712 92.7486 170.25C92.9266 169.788 93.0156 169.25 93.0156 168.636C93.0156 168.03 92.9285 167.5 92.7543 167.045C92.58 166.591 92.3243 166.237 91.9872 165.983C91.6501 165.729 91.2334 165.602 90.7372 165.602C90.2259 165.602 89.7997 165.735 89.4588 166C89.1179 166.265 88.8603 166.627 88.6861 167.085C88.5156 167.544 88.4304 168.061 88.4304 168.636C88.4304 169.22 88.5175 169.744 88.6918 170.21C88.866 170.676 89.1236 171.045 89.4645 171.318C89.8092 171.587 90.2334 171.722 90.7372 171.722ZM99.6506 173.193C99.0975 173.193 98.5975 173.091 98.1506 172.886C97.7036 172.678 97.3494 172.377 97.0881 171.983C96.8305 171.589 96.7017 171.106 96.7017 170.534C96.7017 170.042 96.7964 169.636 96.9858 169.318C97.1752 169 97.4309 168.748 97.7528 168.562C98.0748 168.377 98.4347 168.237 98.8324 168.142C99.2301 168.047 99.6354 167.975 100.048 167.926C100.571 167.866 100.995 167.816 101.321 167.778C101.647 167.737 101.884 167.67 102.031 167.58C102.179 167.489 102.253 167.341 102.253 167.136V167.097C102.253 166.6 102.113 166.216 101.832 165.943C101.556 165.67 101.143 165.534 100.594 165.534C100.022 165.534 99.571 165.661 99.2415 165.915C98.9157 166.165 98.6903 166.443 98.5653 166.75L96.9688 166.386C97.1581 165.856 97.4347 165.428 97.7983 165.102C98.1657 164.773 98.5881 164.534 99.0653 164.386C99.5426 164.235 100.045 164.159 100.571 164.159C100.92 164.159 101.289 164.201 101.679 164.284C102.073 164.364 102.44 164.511 102.781 164.727C103.126 164.943 103.408 165.252 103.628 165.653C103.848 166.051 103.957 166.568 103.957 167.205V173H102.298V171.807H102.23C102.12 172.027 101.955 172.242 101.736 172.455C101.516 172.667 101.234 172.843 100.889 172.983C100.545 173.123 100.132 173.193 99.6506 173.193ZM100.02 171.83C100.49 171.83 100.891 171.737 101.224 171.551C101.562 171.366 101.817 171.123 101.991 170.824C102.17 170.521 102.259 170.197 102.259 169.852V168.727C102.198 168.788 102.08 168.845 101.906 168.898C101.736 168.947 101.541 168.991 101.321 169.028C101.101 169.062 100.887 169.095 100.679 169.125C100.471 169.152 100.296 169.174 100.156 169.193C99.8267 169.235 99.5256 169.305 99.2528 169.403C98.9839 169.502 98.768 169.644 98.6051 169.83C98.446 170.011 98.3665 170.254 98.3665 170.557C98.3665 170.977 98.5218 171.295 98.8324 171.511C99.143 171.723 99.5388 171.83 100.02 171.83ZM106.22 176.273V164.273H107.879V165.688H108.021C108.12 165.506 108.262 165.295 108.447 165.057C108.633 164.818 108.891 164.61 109.22 164.432C109.55 164.25 109.985 164.159 110.527 164.159C111.232 164.159 111.86 164.337 112.413 164.693C112.966 165.049 113.4 165.562 113.714 166.233C114.033 166.903 114.192 167.71 114.192 168.653C114.192 169.597 114.035 170.405 113.72 171.08C113.406 171.75 112.974 172.267 112.425 172.631C111.875 172.991 111.249 173.17 110.544 173.17C110.014 173.17 109.58 173.081 109.243 172.903C108.91 172.725 108.648 172.517 108.459 172.278C108.269 172.04 108.124 171.828 108.021 171.642H107.919V176.273H106.22ZM107.885 168.636C107.885 169.25 107.974 169.788 108.152 170.25C108.33 170.712 108.588 171.074 108.925 171.335C109.262 171.593 109.675 171.722 110.163 171.722C110.671 171.722 111.095 171.587 111.436 171.318C111.777 171.045 112.035 170.676 112.209 170.21C112.387 169.744 112.476 169.22 112.476 168.636C112.476 168.061 112.389 167.544 112.214 167.085C112.044 166.627 111.786 166.265 111.442 166C111.101 165.735 110.675 165.602 110.163 165.602C109.671 165.602 109.254 165.729 108.913 165.983C108.576 166.237 108.321 166.591 108.146 167.045C107.972 167.5 107.885 168.03 107.885 168.636ZM120.169 164.273V165.636H115.402V164.273H120.169ZM116.68 162.182H118.379V170.438C118.379 170.767 118.429 171.015 118.527 171.182C118.625 171.345 118.752 171.456 118.908 171.517C119.067 171.574 119.239 171.602 119.425 171.602C119.561 171.602 119.68 171.593 119.783 171.574C119.885 171.555 119.964 171.54 120.021 171.528L120.328 172.932C120.23 172.97 120.089 173.008 119.908 173.045C119.726 173.087 119.499 173.11 119.226 173.114C118.779 173.121 118.362 173.042 117.976 172.875C117.589 172.708 117.277 172.451 117.038 172.102C116.8 171.754 116.68 171.316 116.68 170.79V162.182ZM124.588 173.193C124.035 173.193 123.535 173.091 123.088 172.886C122.641 172.678 122.287 172.377 122.026 171.983C121.768 171.589 121.639 171.106 121.639 170.534C121.639 170.042 121.734 169.636 121.923 169.318C122.113 169 122.368 168.748 122.69 168.562C123.012 168.377 123.372 168.237 123.77 168.142C124.168 168.047 124.573 167.975 124.986 167.926C125.509 167.866 125.933 167.816 126.259 167.778C126.584 167.737 126.821 167.67 126.969 167.58C127.116 167.489 127.19 167.341 127.19 167.136V167.097C127.19 166.6 127.05 166.216 126.77 165.943C126.493 165.67 126.08 165.534 125.531 165.534C124.959 165.534 124.509 165.661 124.179 165.915C123.853 166.165 123.628 166.443 123.503 166.75L121.906 166.386C122.096 165.856 122.372 165.428 122.736 165.102C123.103 164.773 123.526 164.534 124.003 164.386C124.48 164.235 124.982 164.159 125.509 164.159C125.857 164.159 126.226 164.201 126.616 164.284C127.01 164.364 127.378 164.511 127.719 164.727C128.063 164.943 128.346 165.252 128.565 165.653C128.785 166.051 128.895 166.568 128.895 167.205V173H127.236V171.807H127.168C127.058 172.027 126.893 172.242 126.673 172.455C126.454 172.667 126.171 172.843 125.827 172.983C125.482 173.123 125.069 173.193 124.588 173.193ZM124.957 171.83C125.427 171.83 125.829 171.737 126.162 171.551C126.499 171.366 126.755 171.123 126.929 170.824C127.107 170.521 127.196 170.197 127.196 169.852V168.727C127.135 168.788 127.018 168.845 126.844 168.898C126.673 168.947 126.478 168.991 126.259 169.028C126.039 169.062 125.825 169.095 125.616 169.125C125.408 169.152 125.234 169.174 125.094 169.193C124.764 169.235 124.463 169.305 124.19 169.403C123.921 169.502 123.705 169.644 123.543 169.83C123.384 170.011 123.304 170.254 123.304 170.557C123.304 170.977 123.459 171.295 123.77 171.511C124.08 171.723 124.476 171.83 124.957 171.83ZM131.294 173V161.364H132.993V165.688H133.095C133.194 165.506 133.336 165.295 133.521 165.057C133.707 164.818 133.964 164.61 134.294 164.432C134.624 164.25 135.059 164.159 135.601 164.159C136.305 164.159 136.934 164.337 137.487 164.693C138.04 165.049 138.474 165.562 138.788 166.233C139.107 166.903 139.266 167.71 139.266 168.653C139.266 169.597 139.108 170.405 138.794 171.08C138.48 171.75 138.048 172.267 137.499 172.631C136.949 172.991 136.322 173.17 135.618 173.17C135.088 173.17 134.654 173.081 134.317 172.903C133.983 172.725 133.722 172.517 133.533 172.278C133.343 172.04 133.197 171.828 133.095 171.642H132.953V173H131.294ZM132.959 168.636C132.959 169.25 133.048 169.788 133.226 170.25C133.404 170.712 133.661 171.074 133.999 171.335C134.336 171.593 134.749 171.722 135.237 171.722C135.745 171.722 136.169 171.587 136.51 171.318C136.851 171.045 137.108 170.676 137.283 170.21C137.461 169.744 137.55 169.22 137.55 168.636C137.55 168.061 137.463 167.544 137.288 167.085C137.118 166.627 136.86 166.265 136.516 166C136.175 165.735 135.749 165.602 135.237 165.602C134.745 165.602 134.328 165.729 133.987 165.983C133.65 166.237 133.394 166.591 133.22 167.045C133.046 167.5 132.959 168.03 132.959 168.636ZM141.173 173V164.273H142.872V173H141.173ZM142.031 162.926C141.736 162.926 141.482 162.828 141.27 162.631C141.062 162.43 140.957 162.191 140.957 161.915C140.957 161.634 141.062 161.396 141.27 161.199C141.482 160.998 141.736 160.898 142.031 160.898C142.327 160.898 142.579 160.998 142.787 161.199C142.999 161.396 143.105 161.634 143.105 161.915C143.105 162.191 142.999 162.43 142.787 162.631C142.579 162.828 142.327 162.926 142.031 162.926ZM146.857 161.364V173H145.158V161.364H146.857ZM149.142 173V164.273H150.841V173H149.142ZM150 162.926C149.705 162.926 149.451 162.828 149.239 162.631C149.03 162.43 148.926 162.191 148.926 161.915C148.926 161.634 149.03 161.396 149.239 161.199C149.451 160.998 149.705 160.898 150 160.898C150.295 160.898 150.547 160.998 150.756 161.199C150.968 161.396 151.074 161.634 151.074 161.915C151.074 162.191 150.968 162.43 150.756 162.631C150.547 162.828 150.295 162.926 150 162.926ZM157.2 164.273V165.636H152.433V164.273H157.2ZM153.712 162.182H155.411V170.438C155.411 170.767 155.46 171.015 155.558 171.182C155.657 171.345 155.784 171.456 155.939 171.517C156.098 171.574 156.27 171.602 156.456 171.602C156.592 171.602 156.712 171.593 156.814 171.574C156.916 171.555 156.996 171.54 157.053 171.528L157.359 172.932C157.261 172.97 157.121 173.008 156.939 173.045C156.757 173.087 156.53 173.11 156.257 173.114C155.81 173.121 155.393 173.042 155.007 172.875C154.621 172.708 154.308 172.451 154.07 172.102C153.831 171.754 153.712 171.316 153.712 170.79V162.182ZM160.153 176.273C159.9 176.273 159.669 176.252 159.46 176.21C159.252 176.172 159.097 176.131 158.994 176.085L159.403 174.693C159.714 174.777 159.991 174.813 160.233 174.801C160.475 174.79 160.689 174.699 160.875 174.528C161.064 174.358 161.231 174.08 161.375 173.693L161.585 173.114L158.392 164.273H160.21L162.42 171.045H162.511L164.722 164.273H166.545L162.949 174.165C162.782 174.619 162.57 175.004 162.312 175.318C162.055 175.636 161.748 175.875 161.392 176.034C161.036 176.193 160.623 176.273 160.153 176.273Z" fill="#7C7C7C"/>
<path d="M64.6364 243.182C64.6364 244.424 64.4091 245.492 63.9545 246.386C63.5 247.277 62.8769 247.962 62.0852 248.443C61.2973 248.92 60.4015 249.159 59.3977 249.159C58.3902 249.159 57.4905 248.92 56.6989 248.443C55.911 247.962 55.2898 247.275 54.8352 246.381C54.3807 245.487 54.1534 244.42 54.1534 243.182C54.1534 241.939 54.3807 240.873 54.8352 239.983C55.2898 239.089 55.911 238.403 56.6989 237.926C57.4905 237.445 58.3902 237.205 59.3977 237.205C60.4015 237.205 61.2973 237.445 62.0852 237.926C62.8769 238.403 63.5 239.089 63.9545 239.983C64.4091 240.873 64.6364 241.939 64.6364 243.182ZM62.8977 243.182C62.8977 242.235 62.7443 241.437 62.4375 240.79C62.1345 240.138 61.7178 239.646 61.1875 239.312C60.661 238.975 60.0644 238.807 59.3977 238.807C58.7273 238.807 58.1288 238.975 57.6023 239.312C57.0758 239.646 56.6591 240.138 56.3523 240.79C56.0492 241.437 55.8977 242.235 55.8977 243.182C55.8977 244.129 56.0492 244.928 56.3523 245.58C56.6591 246.227 57.0758 246.72 57.6023 247.057C58.1288 247.39 58.7273 247.557 59.3977 247.557C60.0644 247.557 60.661 247.39 61.1875 247.057C61.7178 246.72 62.1345 246.227 62.4375 245.58C62.7443 244.928 62.8977 244.129 62.8977 243.182ZM66.6889 252.273V240.273H68.348V241.688H68.4901C68.5885 241.506 68.7306 241.295 68.9162 241.057C69.1018 240.818 69.3594 240.61 69.6889 240.432C70.0185 240.25 70.4541 240.159 70.9957 240.159C71.7003 240.159 72.3291 240.337 72.8821 240.693C73.4351 241.049 73.8688 241.562 74.1832 242.233C74.5014 242.903 74.6605 243.71 74.6605 244.653C74.6605 245.597 74.5033 246.405 74.1889 247.08C73.8745 247.75 73.4427 248.267 72.8935 248.631C72.3442 248.991 71.7173 249.17 71.0128 249.17C70.4825 249.17 70.0488 249.081 69.7116 248.903C69.3783 248.725 69.117 248.517 68.9276 248.278C68.7382 248.04 68.5923 247.828 68.4901 247.642H68.3878V252.273H66.6889ZM68.3537 244.636C68.3537 245.25 68.4427 245.788 68.6207 246.25C68.7988 246.712 69.0563 247.074 69.3935 247.335C69.7306 247.593 70.1435 247.722 70.6321 247.722C71.1397 247.722 71.5639 247.587 71.9048 247.318C72.2457 247.045 72.5033 246.676 72.6776 246.21C72.8556 245.744 72.9446 245.22 72.9446 244.636C72.9446 244.061 72.8575 243.544 72.6832 243.085C72.5128 242.627 72.2552 242.265 71.9105 242C71.5696 241.735 71.1435 241.602 70.6321 241.602C70.1397 241.602 69.723 241.729 69.3821 241.983C69.045 242.237 68.7893 242.591 68.6151 243.045C68.4408 243.5 68.3537 244.03 68.3537 244.636ZM80.3253 249.176C79.4654 249.176 78.7249 248.992 78.1037 248.625C77.4863 248.254 77.009 247.733 76.6719 247.062C76.3385 246.388 76.1719 245.598 76.1719 244.693C76.1719 243.799 76.3385 243.011 76.6719 242.33C77.009 241.648 77.4787 241.116 78.081 240.733C78.687 240.35 79.3954 240.159 80.206 240.159C80.6984 240.159 81.1757 240.241 81.6378 240.403C82.0999 240.566 82.5147 240.822 82.8821 241.17C83.2495 241.519 83.5393 241.972 83.7514 242.528C83.9635 243.081 84.0696 243.754 84.0696 244.545V245.148H77.1321V243.875H82.4048C82.4048 243.428 82.3139 243.032 82.1321 242.688C81.9503 242.339 81.6946 242.064 81.3651 241.864C81.0393 241.663 80.6567 241.562 80.2173 241.562C79.7401 241.562 79.3234 241.68 78.9673 241.915C78.6151 242.146 78.3423 242.449 78.1491 242.824C77.9598 243.195 77.8651 243.598 77.8651 244.034V245.028C77.8651 245.612 77.9673 246.108 78.1719 246.517C78.3802 246.926 78.67 247.239 79.0412 247.455C79.4124 247.667 79.8461 247.773 80.3423 247.773C80.6643 247.773 80.9579 247.727 81.223 247.636C81.4882 247.542 81.7173 247.402 81.9105 247.216C82.1037 247.03 82.2514 246.801 82.3537 246.528L83.9616 246.818C83.8329 247.292 83.6018 247.706 83.2685 248.062C82.9389 248.415 82.5241 248.689 82.0241 248.886C81.5279 249.08 80.9616 249.176 80.3253 249.176ZM87.6534 243.818V249H85.9545V240.273H87.5852V241.693H87.6932C87.8939 241.231 88.2083 240.86 88.6364 240.58C89.0682 240.299 89.6117 240.159 90.267 240.159C90.8617 240.159 91.3826 240.284 91.8295 240.534C92.2765 240.78 92.6231 241.148 92.8693 241.636C93.1155 242.125 93.2386 242.729 93.2386 243.449V249H91.5398V243.653C91.5398 243.021 91.375 242.527 91.0455 242.17C90.7159 241.811 90.2633 241.631 89.6875 241.631C89.2936 241.631 88.9432 241.716 88.6364 241.886C88.3333 242.057 88.0928 242.307 87.9148 242.636C87.7405 242.962 87.6534 243.356 87.6534 243.818ZM100.659 243.347V244.818H95.5V243.347H100.659ZM102.923 249V240.273H104.554V241.693H104.662C104.844 241.212 105.141 240.837 105.554 240.568C105.967 240.295 106.461 240.159 107.037 240.159C107.62 240.159 108.109 240.295 108.503 240.568C108.901 240.841 109.194 241.216 109.384 241.693H109.474C109.683 241.227 110.014 240.856 110.469 240.58C110.923 240.299 111.465 240.159 112.094 240.159C112.885 240.159 113.531 240.407 114.031 240.903C114.535 241.4 114.787 242.148 114.787 243.148V249H113.088V243.307C113.088 242.716 112.927 242.288 112.605 242.023C112.283 241.758 111.899 241.625 111.452 241.625C110.899 241.625 110.469 241.795 110.162 242.136C109.855 242.473 109.702 242.907 109.702 243.438V249H108.009V243.199C108.009 242.725 107.861 242.345 107.565 242.057C107.27 241.769 106.885 241.625 106.412 241.625C106.09 241.625 105.793 241.71 105.52 241.881C105.251 242.047 105.033 242.28 104.866 242.58C104.704 242.879 104.622 243.225 104.622 243.619V249H102.923ZM117.064 249V240.273H118.763V249H117.064ZM117.922 238.926C117.626 238.926 117.373 238.828 117.161 238.631C116.952 238.43 116.848 238.191 116.848 237.915C116.848 237.634 116.952 237.396 117.161 237.199C117.373 236.998 117.626 236.898 117.922 236.898C118.217 236.898 118.469 236.998 118.678 237.199C118.89 237.396 118.996 237.634 118.996 237.915C118.996 238.191 118.89 238.43 118.678 238.631C118.469 238.828 118.217 238.926 117.922 238.926ZM122.747 243.818V249H121.048V240.273H122.679V241.693H122.787C122.988 241.231 123.302 240.86 123.73 240.58C124.162 240.299 124.705 240.159 125.361 240.159C125.955 240.159 126.476 240.284 126.923 240.534C127.37 240.78 127.717 241.148 127.963 241.636C128.209 242.125 128.332 242.729 128.332 243.449V249H126.634V243.653C126.634 243.021 126.469 242.527 126.139 242.17C125.81 241.811 125.357 241.631 124.781 241.631C124.387 241.631 124.037 241.716 123.73 241.886C123.427 242.057 123.187 242.307 123.009 242.636C122.834 242.962 122.747 243.356 122.747 243.818ZM133.878 249.17C133.173 249.17 132.545 248.991 131.991 248.631C131.442 248.267 131.01 247.75 130.696 247.08C130.385 246.405 130.23 245.597 130.23 244.653C130.23 243.71 130.387 242.903 130.702 242.233C131.02 241.562 131.455 241.049 132.009 240.693C132.562 240.337 133.188 240.159 133.889 240.159C134.431 240.159 134.866 240.25 135.196 240.432C135.529 240.61 135.787 240.818 135.969 241.057C136.154 241.295 136.298 241.506 136.401 241.688H136.503V237.364H138.202V249H136.543V247.642H136.401C136.298 247.828 136.151 248.04 135.957 248.278C135.768 248.517 135.507 248.725 135.173 248.903C134.84 249.081 134.408 249.17 133.878 249.17ZM134.253 247.722C134.741 247.722 135.154 247.593 135.491 247.335C135.832 247.074 136.09 246.712 136.264 246.25C136.442 245.788 136.531 245.25 136.531 244.636C136.531 244.03 136.444 243.5 136.27 243.045C136.096 242.591 135.84 242.237 135.503 241.983C135.166 241.729 134.749 241.602 134.253 241.602C133.741 241.602 133.315 241.735 132.974 242C132.634 242.265 132.376 242.627 132.202 243.085C132.031 243.544 131.946 244.061 131.946 244.636C131.946 245.22 132.033 245.744 132.207 246.21C132.382 246.676 132.639 247.045 132.98 247.318C133.325 247.587 133.749 247.722 134.253 247.722ZM144.388 249.176C143.528 249.176 142.787 248.992 142.166 248.625C141.549 248.254 141.071 247.733 140.734 247.062C140.401 246.388 140.234 245.598 140.234 244.693C140.234 243.799 140.401 243.011 140.734 242.33C141.071 241.648 141.541 241.116 142.143 240.733C142.75 240.35 143.458 240.159 144.268 240.159C144.761 240.159 145.238 240.241 145.7 240.403C146.162 240.566 146.577 240.822 146.945 241.17C147.312 241.519 147.602 241.972 147.814 242.528C148.026 243.081 148.132 243.754 148.132 244.545V245.148H141.195V243.875H146.467C146.467 243.428 146.376 243.032 146.195 242.688C146.013 242.339 145.757 242.064 145.428 241.864C145.102 241.663 144.719 241.562 144.28 241.562C143.803 241.562 143.386 241.68 143.03 241.915C142.678 242.146 142.405 242.449 142.212 242.824C142.022 243.195 141.928 243.598 141.928 244.034V245.028C141.928 245.612 142.03 246.108 142.234 246.517C142.443 246.926 142.732 247.239 143.104 247.455C143.475 247.667 143.909 247.773 144.405 247.773C144.727 247.773 145.02 247.727 145.286 247.636C145.551 247.542 145.78 247.402 145.973 247.216C146.166 247.03 146.314 246.801 146.416 246.528L148.024 246.818C147.895 247.292 147.664 247.706 147.331 248.062C147.001 248.415 146.587 248.689 146.087 248.886C145.59 249.08 145.024 249.176 144.388 249.176ZM153.284 249.17C152.58 249.17 151.951 248.991 151.398 248.631C150.848 248.267 150.417 247.75 150.102 247.08C149.792 246.405 149.636 245.597 149.636 244.653C149.636 243.71 149.794 242.903 150.108 242.233C150.426 241.562 150.862 241.049 151.415 240.693C151.968 240.337 152.595 240.159 153.295 240.159C153.837 240.159 154.273 240.25 154.602 240.432C154.936 240.61 155.193 240.818 155.375 241.057C155.561 241.295 155.705 241.506 155.807 241.688H155.909V237.364H157.608V249H155.949V247.642H155.807C155.705 247.828 155.557 248.04 155.364 248.278C155.174 248.517 154.913 248.725 154.58 248.903C154.246 249.081 153.814 249.17 153.284 249.17ZM153.659 247.722C154.148 247.722 154.561 247.593 154.898 247.335C155.239 247.074 155.496 246.712 155.67 246.25C155.848 245.788 155.938 245.25 155.938 244.636C155.938 244.03 155.85 243.5 155.676 243.045C155.502 242.591 155.246 242.237 154.909 241.983C154.572 241.729 154.155 241.602 153.659 241.602C153.148 241.602 152.722 241.735 152.381 242C152.04 242.265 151.782 242.627 151.608 243.085C151.438 243.544 151.352 244.061 151.352 244.636C151.352 245.22 151.439 245.744 151.614 246.21C151.788 246.676 152.045 247.045 152.386 247.318C152.731 247.587 153.155 247.722 153.659 247.722ZM161.732 243.818V249H160.033V240.273H161.663V241.693H161.771C161.972 241.231 162.286 240.86 162.714 240.58C163.146 240.299 163.69 240.159 164.345 240.159C164.94 240.159 165.461 240.284 165.908 240.534C166.355 240.78 166.701 241.148 166.947 241.636C167.194 242.125 167.317 242.729 167.317 243.449V249H165.618V243.653C165.618 243.021 165.453 242.527 165.124 242.17C164.794 241.811 164.341 241.631 163.766 241.631C163.372 241.631 163.021 241.716 162.714 241.886C162.411 242.057 162.171 242.307 161.993 242.636C161.819 242.962 161.732 243.356 161.732 243.818ZM173.357 249.176C172.497 249.176 171.756 248.992 171.135 248.625C170.518 248.254 170.04 247.733 169.703 247.062C169.37 246.388 169.203 245.598 169.203 244.693C169.203 243.799 169.37 243.011 169.703 242.33C170.04 241.648 170.51 241.116 171.112 240.733C171.718 240.35 172.427 240.159 173.237 240.159C173.73 240.159 174.207 240.241 174.669 240.403C175.131 240.566 175.546 240.822 175.913 241.17C176.281 241.519 176.571 241.972 176.783 242.528C176.995 243.081 177.101 243.754 177.101 244.545V245.148H170.163V243.875H175.436C175.436 243.428 175.345 243.032 175.163 242.688C174.982 242.339 174.726 242.064 174.396 241.864C174.071 241.663 173.688 241.562 173.249 241.562C172.771 241.562 172.355 241.68 171.999 241.915C171.646 242.146 171.374 242.449 171.18 242.824C170.991 243.195 170.896 243.598 170.896 244.034V245.028C170.896 245.612 170.999 246.108 171.203 246.517C171.411 246.926 171.701 247.239 172.072 247.455C172.444 247.667 172.877 247.773 173.374 247.773C173.696 247.773 173.989 247.727 174.254 247.636C174.519 247.542 174.749 247.402 174.942 247.216C175.135 247.03 175.283 246.801 175.385 246.528L176.993 246.818C176.864 247.292 176.633 247.706 176.3 248.062C175.97 248.415 175.555 248.689 175.055 248.886C174.559 249.08 173.993 249.176 173.357 249.176ZM185.526 242.403L183.986 242.676C183.921 242.479 183.819 242.292 183.679 242.114C183.543 241.936 183.357 241.79 183.122 241.676C182.887 241.562 182.594 241.506 182.241 241.506C181.76 241.506 181.359 241.614 181.037 241.83C180.715 242.042 180.554 242.316 180.554 242.653C180.554 242.945 180.662 243.18 180.878 243.358C181.094 243.536 181.442 243.682 181.923 243.795L183.31 244.114C184.113 244.299 184.711 244.585 185.105 244.972C185.499 245.358 185.696 245.86 185.696 246.477C185.696 247 185.545 247.466 185.241 247.875C184.942 248.28 184.524 248.598 183.986 248.83C183.452 249.061 182.832 249.176 182.128 249.176C181.151 249.176 180.353 248.968 179.736 248.551C179.118 248.131 178.74 247.534 178.599 246.761L180.241 246.511C180.344 246.939 180.554 247.263 180.872 247.483C181.19 247.699 181.605 247.807 182.116 247.807C182.673 247.807 183.118 247.691 183.452 247.46C183.785 247.225 183.952 246.939 183.952 246.602C183.952 246.33 183.849 246.1 183.645 245.915C183.444 245.729 183.135 245.589 182.719 245.494L181.241 245.17C180.427 244.985 179.825 244.689 179.435 244.284C179.048 243.879 178.855 243.366 178.855 242.744C178.855 242.229 178.999 241.778 179.287 241.392C179.575 241.006 179.973 240.705 180.48 240.489C180.988 240.269 181.569 240.159 182.224 240.159C183.168 240.159 183.91 240.364 184.452 240.773C184.993 241.178 185.351 241.722 185.526 242.403ZM194.104 242.403L192.564 242.676C192.5 242.479 192.397 242.292 192.257 242.114C192.121 241.936 191.935 241.79 191.7 241.676C191.465 241.562 191.172 241.506 190.82 241.506C190.339 241.506 189.937 241.614 189.615 241.83C189.293 242.042 189.132 242.316 189.132 242.653C189.132 242.945 189.24 243.18 189.456 243.358C189.672 243.536 190.02 243.682 190.501 243.795L191.888 244.114C192.691 244.299 193.289 244.585 193.683 244.972C194.077 245.358 194.274 245.86 194.274 246.477C194.274 247 194.123 247.466 193.82 247.875C193.52 248.28 193.102 248.598 192.564 248.83C192.03 249.061 191.411 249.176 190.706 249.176C189.729 249.176 188.931 248.968 188.314 248.551C187.696 248.131 187.318 247.534 187.178 246.761L188.82 246.511C188.922 246.939 189.132 247.263 189.45 247.483C189.768 247.699 190.183 247.807 190.695 247.807C191.251 247.807 191.696 247.691 192.03 247.46C192.363 247.225 192.53 246.939 192.53 246.602C192.53 246.33 192.428 246.1 192.223 245.915C192.022 245.729 191.714 245.589 191.297 245.494L189.82 245.17C189.005 244.985 188.403 244.689 188.013 244.284C187.626 243.879 187.433 243.366 187.433 242.744C187.433 242.229 187.577 241.778 187.865 241.392C188.153 241.006 188.551 240.705 189.058 240.489C189.566 240.269 190.147 240.159 190.803 240.159C191.746 240.159 192.488 240.364 193.03 240.773C193.571 241.178 193.929 241.722 194.104 242.403Z" fill="#7C7C7C"/>
</svg>
