<svg width="74" height="74" viewBox="0 0 74 74" fill="none" xmlns="http://www.w3.org/2000/svg">
<rect x="0.5" y="0.5" width="73" height="73" rx="9.5" fill="white" stroke="#8BB0DB"/>
<path d="M7 25.0255C7 25.0255 9.36999 24.741 10.9501 26.073C11.9253 26.8946 12.2094 28.2044 12.2094 28.2044L15.4361 40.1598L18.1199 30.3749C18.3805 29.335 18.8521 28.0486 19.597 27.1792C20.5477 26.072 22.4776 26.0021 22.6834 26.0021C22.8892 26.0021 24.8182 26.0721 25.7681 27.1792C26.513 28.0486 26.9844 29.3341 27.2461 30.3749L29.9298 40.1598L33.1555 28.2043C33.1555 28.2043 33.4408 26.8947 34.416 26.073C35.9961 24.7409 38.3651 25.0254 38.3651 25.0254L32.1862 47.3681C32.1862 47.3681 30.1485 47.5091 29.1281 47.0119C27.7883 46.3588 27.1522 45.8552 26.3406 42.8144C25.9304 41.2591 25.5253 39.7026 25.1252 38.1449L24.9733 37.5581C24.5899 36.0677 24.2043 34.5777 23.8166 33.0883L23.6696 32.5287C23.5343 32.0212 23.4413 31.6798 23.408 31.5773C23.3168 31.2964 23.208 30.6276 22.6826 30.6276C22.169 30.6276 22.0503 31.2973 21.9573 31.5773C21.9229 31.6798 21.8299 32.0202 21.6956 32.5285L21.5484 33.0883C21.2355 34.2854 20.9252 35.483 20.6174 36.6813L20.4665 37.2653C19.9918 39.1166 19.5115 40.9666 19.0256 42.8152C18.214 45.8552 17.577 46.3598 16.2369 47.0119C15.2167 47.5091 13.1789 47.3681 13.1789 47.3681L7 25.0255ZM44.2442 28.7314V29.5382H44.2462V43.0253C44.2353 45.793 43.9541 46.4076 42.7309 47.0447C41.7801 47.5399 40.3255 47.3526 40.3255 47.3526V32.244C40.3255 31.4858 40.5725 30.9886 41.4831 30.5427C42.027 30.276 42.5337 30.0717 43.0611 29.7695C43.7816 29.3591 44.1471 28.8712 44.2275 28.7555L44.2442 28.7314ZM46.2065 25.1001C46.2065 25.1001 49.3988 24.5619 50.9799 25.9862C51.8689 26.7875 52.8519 28.1531 53.0745 28.4684L53.1165 28.528L53.1214 28.5355L55.9052 32.5054C56.0395 32.7116 56.2158 32.9364 56.4982 32.9364C56.7795 32.9364 56.9569 32.7125 57.0921 32.5054L59.8749 28.5355L59.8797 28.528L59.9218 28.4684C60.1443 28.1531 61.1274 26.7875 62.0174 25.9854C63.5974 24.5619 66.7898 25.0992 66.7898 25.0992L59.226 36.2328L66.7693 47.33C66.7693 47.33 63.5034 47.746 61.9223 46.3217C60.9108 45.4113 59.8748 43.9291 59.8748 43.9291L57.0912 39.9601C56.9569 39.7531 56.7794 39.5283 56.4982 39.5283C56.2159 39.5283 56.0395 39.7522 55.9041 39.9601L53.1214 43.9291C53.1214 43.9291 52.1423 45.4113 51.1318 46.3217C49.5508 47.746 46.226 47.33 46.226 47.33L53.7694 36.2328L46.2065 25.1001ZM44.2363 25.0003H44.2462C44.2462 26.4834 44.099 27.3649 43.1581 28.0496C42.7213 28.369 42.2397 28.6286 41.7272 28.8209C41.2075 29.014 40.7316 29.3003 40.3255 29.6642C40.3255 26.9629 40.74 25.9844 41.8546 25.4051C42.5475 25.0451 43.6855 25.0039 44.0942 25.0003H44.2363Z" fill="#8BB0DB"/>
</svg>
