<svg width="74" height="74" viewBox="0 0 74 74" fill="none" xmlns="http://www.w3.org/2000/svg">
<rect width="74" height="74" rx="10" fill="#8BB0DB"/>
<path d="M7 25.0256C7 25.0256 9.36999 24.7411 10.9501 26.0732C11.9253 26.8947 12.2094 28.2045 12.2094 28.2045L15.4361 40.1599L18.1199 30.3751C18.3805 29.3351 18.8521 28.0487 19.597 27.1794C20.5477 26.0722 22.4776 26.0023 22.6834 26.0023C22.8892 26.0023 24.8182 26.0723 25.7681 27.1794C26.513 28.0487 26.9844 29.3342 27.2461 30.3751L29.9298 40.1599L33.1555 28.2044C33.1555 28.2044 33.4408 26.8949 34.416 26.0732C35.9961 24.741 38.3651 25.0255 38.3651 25.0255L32.1862 47.3683C32.1862 47.3683 30.1485 47.5092 29.1281 47.012C27.7883 46.359 27.1522 45.8553 26.3406 42.8145C25.9304 41.2592 25.5253 39.7027 25.1252 38.145L24.9733 37.5583C24.5899 36.0678 24.2043 34.5779 23.8166 33.0884L23.6696 32.5288C23.5343 32.0214 23.4413 31.68 23.408 31.5774C23.3168 31.2966 23.208 30.6278 22.6826 30.6278C22.169 30.6278 22.0503 31.2974 21.9573 31.5774C21.9229 31.68 21.8299 32.0204 21.6956 32.5287L21.5484 33.0884C21.2355 34.2855 20.9252 35.4832 20.6174 36.6814L20.4665 37.2654C19.9918 39.1167 19.5115 40.9667 19.0256 42.8153C18.214 45.8553 17.577 46.36 16.2369 47.012C15.2167 47.5092 13.1789 47.3683 13.1789 47.3683L7 25.0256ZM44.2442 28.7315V29.5383H44.2462V43.0255C44.2353 45.7931 43.9541 46.4078 42.7309 47.0449C41.7801 47.5401 40.3255 47.3527 40.3255 47.3527V32.2442C40.3255 31.4859 40.5725 30.9887 41.4831 30.5429C42.027 30.2761 42.5337 30.0718 43.0611 29.7696C43.7816 29.3592 44.1471 28.8713 44.2275 28.7556L44.2442 28.7315ZM46.2065 25.1002C46.2065 25.1002 49.3988 24.562 50.9799 25.9864C51.8689 26.7876 52.8519 28.1532 53.0745 28.4685L53.1165 28.5282L53.1214 28.5356L55.9052 32.5056C56.0395 32.7117 56.2158 32.9365 56.4982 32.9365C56.7795 32.9365 56.9569 32.7126 57.0921 32.5056L59.8749 28.5356L59.8797 28.5282L59.9218 28.4685C60.1443 28.1532 61.1274 26.7876 62.0174 25.9855C63.5974 24.562 66.7898 25.0993 66.7898 25.0993L59.226 36.2329L66.7693 47.3301C66.7693 47.3301 63.5034 47.7461 61.9223 46.3218C60.9108 45.4115 59.8748 43.9292 59.8748 43.9292L57.0912 39.9602C56.9569 39.7532 56.7794 39.5284 56.4982 39.5284C56.2159 39.5284 56.0395 39.7523 55.9041 39.9602L53.1214 43.9292C53.1214 43.9292 52.1423 45.4115 51.1318 46.3218C49.5508 47.7461 46.226 47.3301 46.226 47.3301L53.7694 36.2329L46.2065 25.1002ZM44.2363 25.0004H44.2462C44.2462 26.4836 44.099 27.3651 43.1581 28.0497C42.7213 28.3692 42.2397 28.6288 41.7272 28.821C41.2075 29.0141 40.7316 29.3004 40.3255 29.6644C40.3255 26.963 40.74 25.9845 41.8546 25.4053C42.5475 25.0452 43.6855 25.0041 44.0942 25.0004H44.2363Z" fill="white"/>
</svg>
