<svg width="977" height="568" viewBox="0 0 977 568" fill="none" xmlns="http://www.w3.org/2000/svg">
<path d="M134.659 94H117.045C116.004 88.9337 114.181 84.483 111.577 80.6477C109.02 76.8125 105.895 73.5928 102.202 70.9886C98.5559 68.3371 94.5076 66.3485 90.0568 65.0227C85.6061 63.697 80.9659 63.0341 76.1364 63.0341C67.3295 63.0341 59.3513 65.2595 52.2017 69.7102C45.0994 74.161 39.4413 80.7188 35.2273 89.3835C31.0606 98.0483 28.9773 108.678 28.9773 121.273C28.9773 133.867 31.0606 144.497 35.2273 153.162C39.4413 161.827 45.0994 168.384 52.2017 172.835C59.3513 177.286 67.3295 179.511 76.1364 179.511C80.9659 179.511 85.6061 178.848 90.0568 177.523C94.5076 176.197 98.5559 174.232 102.202 171.628C105.895 168.976 109.02 165.733 111.577 161.898C114.181 158.015 116.004 153.564 117.045 148.545H134.659C133.333 155.979 130.919 162.632 127.415 168.503C123.911 174.374 119.555 179.369 114.347 183.489C109.138 187.561 103.291 190.662 96.804 192.793C90.3646 194.923 83.4754 195.989 76.1364 195.989C63.7311 195.989 52.6989 192.958 43.0398 186.898C33.3807 180.837 25.7813 172.22 20.2415 161.045C14.7017 149.871 11.9318 136.614 11.9318 121.273C11.9318 105.932 14.7017 92.6742 20.2415 81.5C25.7813 70.3258 33.3807 61.7083 43.0398 55.6477C52.6989 49.5871 63.7311 46.5568 76.1364 46.5568C83.4754 46.5568 90.3646 47.6222 96.804 49.7528C103.291 51.8835 109.138 55.0085 114.347 59.1278C119.555 63.1998 123.911 68.1714 127.415 74.0426C130.919 79.8665 133.333 86.5189 134.659 94ZM160.849 194V84.9091H177.61V194H160.849ZM169.371 66.7273C166.104 66.7273 163.287 65.6146 160.92 63.3892C158.6 61.1638 157.44 58.4886 157.44 55.3636C157.44 52.2386 158.6 49.5634 160.92 47.3381C163.287 45.1127 166.104 44 169.371 44C172.638 44 175.432 45.1127 177.752 47.3381C180.12 49.5634 181.303 52.2386 181.303 55.3636C181.303 58.4886 180.12 61.1638 177.752 63.3892C175.432 65.6146 172.638 66.7273 169.371 66.7273ZM225.071 128.375V194H208.31V84.9091H224.503V101.955H225.923C228.48 96.4148 232.363 91.964 237.571 88.6023C242.779 85.1932 249.503 83.4886 257.741 83.4886C265.128 83.4886 271.591 85.0038 277.131 88.0341C282.67 91.017 286.979 95.5625 290.057 101.67C293.134 107.731 294.673 115.402 294.673 124.682V194H277.912V125.818C277.912 117.248 275.687 110.572 271.236 105.79C266.785 100.96 260.677 98.5455 252.912 98.5455C247.562 98.5455 242.779 99.7055 238.565 102.026C234.399 104.346 231.108 107.731 228.693 112.182C226.278 116.633 225.071 122.03 225.071 128.375ZM399.734 234.909V177.239H398.313C397.082 179.227 395.33 181.737 393.058 184.767C390.785 187.75 387.541 190.425 383.327 192.793C379.113 195.113 373.503 196.273 366.495 196.273C357.404 196.273 349.379 193.976 342.418 189.384C335.458 184.743 330.013 178.209 326.083 169.781C322.153 161.306 320.188 151.292 320.188 139.739C320.188 128.28 322.153 118.337 326.083 109.909C330.013 101.481 335.482 94.9706 342.489 90.3778C349.497 85.785 357.594 83.4886 366.779 83.4886C373.881 83.4886 379.492 84.6723 383.612 87.0398C387.778 89.3598 390.951 92.0114 393.129 94.9943C395.354 97.9299 397.082 100.345 398.313 102.239H400.302V84.9091H416.495V234.909H399.734ZM368.768 181.216C375.491 181.216 381.173 179.464 385.813 175.96C390.453 172.409 393.981 167.509 396.396 161.259C398.81 154.961 400.018 147.693 400.018 139.455C400.018 131.311 398.834 124.185 396.467 118.077C394.099 111.921 390.595 107.139 385.955 103.73C381.315 100.274 375.586 98.5455 368.768 98.5455C361.665 98.5455 355.747 100.368 351.012 104.014C346.325 107.613 342.797 112.513 340.43 118.716C338.11 124.871 336.95 131.784 336.95 139.455C336.95 147.22 338.133 154.275 340.501 160.619C342.915 166.917 346.467 171.936 351.154 175.676C355.889 179.369 361.76 181.216 368.768 181.216Z" fill="#85A8D0"/>
<path d="M408.041 416V270.545H457.189C468.6 270.545 477.928 272.605 485.172 276.724C492.464 280.796 497.861 286.312 501.365 293.273C504.869 300.233 506.621 307.998 506.621 316.568C506.621 325.138 504.869 332.927 501.365 339.935C497.909 346.942 492.558 352.529 485.314 356.696C478.07 360.815 468.789 362.875 457.473 362.875H422.246V347.25H456.905C464.718 347.25 470.991 345.901 475.726 343.202C480.461 340.503 483.894 336.857 486.024 332.264C488.202 327.624 489.291 322.392 489.291 316.568C489.291 310.744 488.202 305.536 486.024 300.943C483.894 296.35 480.437 292.752 475.655 290.148C470.873 287.496 464.528 286.17 456.621 286.17H425.655V416H408.041ZM601.472 371.398V306.909H618.233V416H601.472V397.534H600.335C597.779 403.074 593.801 407.785 588.404 411.668C583.006 415.503 576.188 417.42 567.949 417.42C561.131 417.42 555.07 415.929 549.767 412.946C544.464 409.916 540.298 405.37 537.267 399.31C534.237 393.202 532.722 385.508 532.722 376.227V306.909H549.483V375.091C549.483 383.045 551.709 389.39 556.159 394.125C560.657 398.86 566.387 401.227 573.347 401.227C577.513 401.227 581.751 400.162 586.06 398.031C590.416 395.901 594.062 392.633 596.997 388.23C599.98 383.827 601.472 378.216 601.472 371.398ZM648.933 416V306.909H665.126V323.386H666.262C668.251 317.989 671.849 313.609 677.058 310.247C682.266 306.885 688.137 305.205 694.671 305.205C695.902 305.205 697.441 305.228 699.288 305.276C701.134 305.323 702.531 305.394 703.478 305.489V322.534C702.91 322.392 701.608 322.179 699.572 321.895C697.583 321.563 695.476 321.398 693.251 321.398C687.948 321.398 683.213 322.51 679.046 324.736C674.927 326.914 671.66 329.944 669.245 333.827C666.878 337.662 665.694 342.042 665.694 346.966V416H648.933ZM737.196 306.909V416H717.914V306.909H737.196ZM806.776 418.273C796.549 418.273 787.742 415.858 780.356 411.028C772.969 406.199 767.288 399.546 763.31 391.071C759.333 382.596 757.344 372.913 757.344 362.023C757.344 350.943 759.38 341.166 763.452 332.69C767.572 324.168 773.301 317.515 780.64 312.733C788.026 307.903 796.644 305.489 806.492 305.489C814.163 305.489 821.076 306.909 827.231 309.75C833.386 312.591 838.429 316.568 842.359 321.682C846.289 326.795 848.727 332.761 849.674 339.58H832.913C831.634 334.608 828.793 330.205 824.39 326.369C820.034 322.487 814.163 320.545 806.776 320.545C800.242 320.545 794.513 322.25 789.589 325.659C784.712 329.021 780.9 333.779 778.154 339.935C775.455 346.043 774.106 353.216 774.106 361.455C774.106 369.883 775.432 377.222 778.083 383.472C780.782 389.722 784.57 394.575 789.447 398.031C794.371 401.488 800.147 403.216 806.776 403.216C811.132 403.216 815.086 402.458 818.637 400.943C822.188 399.428 825.195 397.25 827.657 394.409C830.119 391.568 831.871 388.159 832.913 384.182H849.674C848.727 390.621 846.383 396.421 842.643 401.582C838.95 406.696 834.049 410.768 827.941 413.798C821.88 416.781 814.826 418.273 806.776 418.273ZM890.938 350.375V416H874.177V270.545H890.938V323.955H892.359C894.915 318.32 898.751 313.846 903.864 310.531C909.025 307.169 915.891 305.489 924.461 305.489C931.895 305.489 938.405 306.98 943.992 309.963C949.579 312.899 953.912 317.42 956.989 323.528C960.114 329.589 961.677 337.307 961.677 346.682V416H944.915V347.818C944.915 339.153 942.666 332.454 938.168 327.719C933.718 322.937 927.539 320.545 919.631 320.545C914.139 320.545 909.215 321.705 904.859 324.026C900.55 326.346 897.141 329.731 894.631 334.182C892.169 338.633 890.938 344.03 890.938 350.375Z" fill="#85A8D0"/>
</svg>
